<svg width="40" height="40" viewBox="0 0 40 40" fill="none" xmlns="http://www.w3.org/2000/svg">
<rect width="40" height="40" rx="8" fill="#FCD9C0"/>
<path d="M24.0544 22.5791C24.0544 26.2266 21.0975 29.1835 17.4501 29.1835C13.8026 29.1835 10.8457 26.2266 10.8457 22.5791C10.8457 18.9316 13.8026 15.9748 17.4501 15.9748C21.0975 15.9748 24.0544 18.9316 24.0544 22.5791Z" fill="#F58634"/>
<path d="M25.7032 22.5693C28.2149 21.6345 30.0041 19.2151 30.0041 16.3778C30.0041 12.7303 27.0472 9.77344 23.3998 9.77344C20.4659 9.77344 17.9789 11.6864 17.118 14.3331C17.2284 14.3287 17.3392 14.3265 17.4506 14.3265C22.0052 14.3265 25.698 18.016 25.7032 22.5693Z" fill="#F58634"/>
</svg>
