<svg width="170" height="170" viewBox="0 0 170 170" fill="none" xmlns="http://www.w3.org/2000/svg">
<rect width="170" height="170" rx="85" fill="#00525D"/>
<g clip-path="url(#clip0_730_25361)">
<path d="M85.0002 123.401C63.8256 123.401 46.5986 106.174 46.5986 84.9998C46.5986 63.8251 63.8256 46.5982 85.0002 46.5982C106.175 46.5982 123.402 63.8251 123.402 84.9998C123.402 106.174 106.175 123.401 85.0002 123.401ZM85.8536 98.7885C91.3817 98.8773 96.7409 99.8211 101.613 101.518C102.827 96.7882 103.536 91.476 103.602 85.8531H85.8536V98.7885ZM85.8536 100.495V121.652C92.4066 121.066 98.0841 113.765 101.161 103.166C96.4422 101.509 91.2341 100.584 85.8536 100.495ZM84.1469 100.495C78.7655 100.584 73.5583 101.509 68.8383 103.167C71.9155 113.765 77.593 121.066 84.1469 121.652V100.495ZM84.1469 98.7885V85.8531H66.3985C66.4642 91.476 67.1734 96.7882 68.3877 101.518C73.2596 99.8211 78.6187 98.8773 84.1469 98.7885ZM64.6918 85.8531H48.3267C48.5196 94.2315 51.5285 101.923 56.4491 108.015C59.4444 105.597 62.9517 103.602 66.8124 102.094C65.5144 97.1833 64.76 91.6765 64.6918 85.8531ZM64.6918 84.1464C64.7592 78.323 65.5144 72.8162 66.8124 67.9042C62.9526 66.3972 59.4444 64.402 56.4499 61.9836C51.5285 68.0766 48.5196 75.768 48.3267 84.1464H64.6918ZM66.3985 84.1464H84.1469V71.2119C78.6187 71.1231 73.2596 70.1785 68.3877 68.482C67.1734 73.2113 66.4642 78.5236 66.3985 84.1464ZM84.1469 69.5052V48.3476C77.593 48.9339 71.9155 56.2344 68.8383 66.8333C73.5583 68.4905 78.7664 69.4156 84.1469 69.5052ZM85.8536 69.5052C91.2341 69.4164 96.4422 68.4914 101.161 66.8341C98.0841 56.2344 92.4075 48.9339 85.8536 48.3476V69.5052ZM85.8536 71.2119V84.1464H103.602C103.536 78.5236 102.827 73.2113 101.613 68.482C96.7409 70.1785 91.3817 71.1231 85.8536 71.2119ZM105.308 84.1464H121.674C121.481 75.768 118.472 68.0766 113.551 61.9836C110.555 64.402 107.048 66.398 103.187 67.9042C104.485 72.8171 105.24 78.323 105.308 84.1464ZM105.308 85.8531C105.24 91.6765 104.485 97.1825 103.187 102.094C107.048 103.602 110.555 105.597 113.551 108.015C118.472 101.922 121.48 94.2307 121.673 85.8531H105.308ZM112.447 109.317C109.634 107.052 106.344 105.177 102.724 103.747C100.378 111.639 96.6018 117.815 92.0619 121.006C100.103 119.431 107.209 115.223 112.447 109.317ZM77.9386 121.006C73.3987 117.815 69.6225 111.639 67.2766 103.747C63.6566 105.178 60.366 107.053 57.5533 109.318C62.7905 115.223 69.8965 119.431 77.9386 121.006ZM57.5525 60.6822C60.3652 62.9479 63.6549 64.8227 67.2758 66.253C69.6217 58.3619 73.3978 52.1852 77.9377 48.9944C69.8965 50.5681 62.7905 54.7769 57.5525 60.6822ZM92.0619 48.9936C96.6018 52.1843 100.378 58.361 102.724 66.253C106.345 64.8227 109.634 62.9479 112.447 60.6822C107.209 54.7769 100.104 50.5681 92.0619 48.9936Z" fill="white"/>
</g>
<defs>
<clipPath id="clip0_730_25361">
<rect width="78" height="78" fill="white" transform="matrix(1 0 0 -1 46 124)"/>
</clipPath>
</defs>
</svg>
