<svg width="50" height="50" viewBox="0 0 50 50" fill="none" xmlns="http://www.w3.org/2000/svg">
<rect width="50" height="50" rx="25" fill="#1A2B47" fill-opacity="0.2"/>
<path d="M15.25 31.75C20.5856 31.7457 25.898 32.4522 31.047 33.851C31.774 34.049 32.5 33.509 32.5 32.755V31.75M16.75 17.5V18.25C16.75 18.4489 16.671 18.6397 16.5303 18.7803C16.3897 18.921 16.1989 19 16 19H15.25M15.25 19V18.625C15.25 18.004 15.754 17.5 16.375 17.5H33.25M15.25 19V28M33.25 17.5V18.25C33.25 18.664 33.586 19 34 19H34.75M33.25 17.5H33.625C34.246 17.5 34.75 18.004 34.75 18.625V28.375C34.75 28.996 34.246 29.5 33.625 29.5H33.25M15.25 28V28.375C15.25 28.6734 15.3685 28.9595 15.5795 29.1705C15.7905 29.3815 16.0766 29.5 16.375 29.5H16.75M15.25 28H16C16.1989 28 16.3897 28.079 16.5303 28.2197C16.671 28.3603 16.75 28.5511 16.75 28.75V29.5M33.25 29.5V28.75C33.25 28.5511 33.329 28.3603 33.4697 28.2197C33.6103 28.079 33.8011 28 34 28H34.75M33.25 29.5H16.75M28 23.5C28 24.2956 27.6839 25.0587 27.1213 25.6213C26.5587 26.1839 25.7956 26.5 25 26.5C24.2044 26.5 23.4413 26.1839 22.8787 25.6213C22.3161 25.0587 22 24.2956 22 23.5C22 22.7044 22.3161 21.9413 22.8787 21.3787C23.4413 20.8161 24.2044 20.5 25 20.5C25.7956 20.5 26.5587 20.8161 27.1213 21.3787C27.6839 21.9413 28 22.7044 28 23.5ZM31 23.5H31.008V23.508H31V23.5ZM19 23.5H19.008V23.508H19V23.5Z" stroke="#1A2B47" stroke-width="1.5" stroke-linecap="round" stroke-linejoin="round"/>
</svg>
