<svg width="178" height="58" viewBox="0 0 178 58" fill="none" xmlns="http://www.w3.org/2000/svg">
<path d="M56.8695 17.623H63.1867C64.4937 17.623 65.5828 17.623 66.2363 17.8461C66.672 17.8461 67.3255 18.0692 67.7612 18.5154C68.4147 18.7384 68.6325 19.1846 69.0682 19.8538C69.5038 20.3 69.5038 20.9692 69.5038 21.6384C69.5038 22.5307 69.286 23.2 68.8503 23.8692C68.6325 24.5384 67.979 24.9846 67.3255 25.4307C68.1968 25.6538 69.0682 26.1 69.5038 26.7692C70.1573 27.6615 70.3752 28.3307 70.3752 29.4461C70.3752 30.1154 70.1573 30.7846 69.9395 31.4538C69.5038 32.3461 69.0682 32.7923 68.4147 33.2384C67.7612 33.6846 67.1077 33.9077 66.2363 34.1307C65.8007 34.1307 64.2758 34.1307 62.3153 34.1307H56.8695V17.623ZM60.137 20.3V24.0923H62.0975C63.4045 24.0923 64.2758 24.0923 64.4937 24.0923C65.1472 24.0923 65.5828 23.8692 65.8007 23.423C66.2363 23.2 66.4542 22.7538 66.4542 22.3077C66.4542 21.6384 66.2363 21.1923 66.0185 20.9692C65.5828 20.7461 65.365 20.523 64.7115 20.3C64.4937 20.3 63.4045 20.3 61.8797 20.3H60.137ZM60.137 26.9923V31.4538H63.1867C64.2758 31.4538 64.9293 31.2307 65.365 31.2307C65.8007 31.2307 66.2363 31.0077 66.4542 30.5615C66.8898 30.3384 66.8898 29.8923 66.8898 29.223C66.8898 28.7769 66.8898 28.3307 66.672 27.8846C66.4542 27.6615 66.0185 27.2154 65.5828 27.2154C65.1472 26.9923 64.2758 26.9923 62.751 26.9923H60.137Z" fill="#403E3E"/>
<path d="M72.3357 28.1077C72.3357 26.9923 72.5535 25.877 73.207 24.9846C73.6427 23.8693 74.2962 23.2 75.3854 22.7539C76.2567 22.0846 77.3459 21.8616 78.435 21.8616C80.1777 21.8616 81.7025 22.5308 82.7917 23.6462C83.8809 24.7616 84.5344 26.3231 84.5344 28.1077C84.5344 29.8923 83.8809 31.4539 82.7917 32.7923C81.7025 33.9077 80.1777 34.577 78.435 34.577C77.3459 34.577 76.2567 34.1308 75.3854 33.6846C74.2962 33.2385 73.6427 32.5693 73.207 31.4539C72.5535 30.5616 72.3357 29.4462 72.3357 28.1077ZM75.6032 28.1077C75.6032 29.4462 75.821 30.3385 76.4745 31.0077C76.9102 31.4539 77.5637 31.9 78.435 31.9C79.3064 31.9 79.9599 31.4539 80.3955 31.0077C81.049 30.3385 81.2669 29.4462 81.2669 28.1077C81.2669 26.9923 81.049 26.1 80.3955 25.4308C79.9599 24.7616 79.3064 24.5385 78.435 24.5385C77.5637 24.5385 76.9102 24.7616 76.4745 25.4308C75.821 26.1 75.6032 26.9923 75.6032 28.1077Z" fill="#403E3E"/>
<path d="M86.2771 28.1077C86.2771 26.9923 86.4949 25.877 86.9306 24.9846C87.5841 23.8693 88.2376 23.2 89.1089 22.7539C89.9803 22.0846 91.0694 21.8616 92.1586 21.8616C94.1191 21.8616 95.4261 22.5308 96.5153 23.6462C97.8223 24.7616 98.2579 26.3231 98.2579 28.1077C98.2579 29.8923 97.8223 31.4539 96.5153 32.7923C95.4261 33.9077 94.1191 34.577 92.3764 34.577C91.2873 34.577 90.1981 34.1308 89.1089 33.6846C88.2376 33.2385 87.5841 32.5693 86.9306 31.4539C86.4949 30.5616 86.2771 29.4462 86.2771 28.1077ZM89.3268 28.1077C89.3268 29.4462 89.7624 30.3385 90.1981 31.0077C90.8516 31.4539 91.5051 31.9 92.3764 31.9C93.0299 31.9 93.6834 31.4539 94.3369 31.0077C94.7726 30.3385 95.2083 29.4462 95.2083 28.1077C95.2083 26.9923 94.7726 26.1 94.3369 25.4308C93.6834 24.7616 93.0299 24.5385 92.3764 24.5385C91.5051 24.5385 90.8516 24.7616 90.1981 25.4308C89.7624 26.1 89.3268 26.9923 89.3268 28.1077Z" fill="#403E3E"/>
<path d="M100.654 34.1307V17.623H103.704V26.323L107.407 22.0846H111.11L107.189 26.5461L111.546 34.1307H108.06L105.229 28.7769L103.704 30.3384V34.1307H100.654Z" fill="#403E3E"/>
<path d="M118.734 22.0847V24.7616H116.556V29.4462C116.556 30.5616 116.556 31.0077 116.556 31.2308C116.774 31.4539 116.774 31.677 116.992 31.677C116.992 31.677 117.209 31.9 117.427 31.9C117.645 31.9 118.081 31.677 118.734 31.4539L118.952 33.9077C118.299 34.3539 117.427 34.577 116.556 34.577C115.902 34.577 115.467 34.3539 115.031 34.1308C114.595 33.9077 114.16 33.6847 113.942 33.4616C113.724 33.2385 113.724 32.7923 113.506 32.1231C113.506 31.9 113.506 31.0077 113.506 29.8923V24.7616H111.981V22.0847H113.506V19.8539L116.556 17.8462V22.0847H118.734Z" fill="#403E3E"/>
<path d="M127.665 30.3385L130.715 31.0077C130.497 32.1231 129.844 33.0154 128.972 33.4616C128.101 34.1308 127.012 34.577 125.705 34.577C123.744 34.577 122.22 33.6846 121.13 32.3462C120.477 31.2308 120.041 29.8923 120.041 28.3308C120.041 26.3231 120.477 24.7616 121.566 23.6462C122.437 22.5308 123.744 21.8616 125.269 21.8616C127.012 21.8616 128.537 22.5308 129.408 23.6462C130.497 24.7616 130.933 26.5462 130.933 29H123.091C123.309 30.1154 123.527 30.7846 123.962 31.2308C124.398 31.9 125.051 32.1231 125.705 32.1231C126.141 32.1231 126.576 31.9 127.012 31.677C127.23 31.4539 127.448 31.0077 127.665 30.3385ZM127.883 27.2154C127.883 26.3231 127.665 25.4308 127.23 24.9846C126.794 24.5385 126.141 24.3154 125.487 24.3154C124.834 24.3154 124.398 24.5385 123.962 24.9846C123.527 25.6539 123.309 26.3231 123.309 27.2154H127.883Z" fill="#403E3E"/>
<path d="M133.547 34.1307V17.623H136.597V34.1307H133.547Z" fill="#403E3E"/>
<path d="M139.864 34.1307V17.623H142.914V34.1307H139.864Z" fill="#403E3E"/>
<path d="M152.934 30.3385L155.984 31.0077C155.548 32.1231 154.895 33.0154 154.023 33.4616C153.152 34.1308 152.063 34.577 150.756 34.577C148.795 34.577 147.27 33.6846 146.399 32.3462C145.528 31.2308 145.092 29.8923 145.092 28.3308C145.092 26.3231 145.746 24.7616 146.617 23.6462C147.706 22.5308 149.013 21.8616 150.538 21.8616C152.281 21.8616 153.588 22.5308 154.677 23.6462C155.766 24.7616 156.202 26.5462 156.202 29H148.36C148.36 30.1154 148.577 30.7846 149.013 31.2308C149.667 31.9 150.102 32.1231 150.974 32.1231C151.409 32.1231 151.845 31.9 152.063 31.677C152.498 31.4539 152.716 31.0077 152.934 30.3385ZM153.152 27.2154C152.934 26.3231 152.716 25.4308 152.281 24.9846C151.845 24.5385 151.409 24.3154 150.756 24.3154C150.102 24.3154 149.449 24.5385 149.013 24.9846C148.577 25.6539 148.36 26.3231 148.36 27.2154H153.152Z" fill="#403E3E"/>
<path d="M161.647 34.1308H158.598V22.0846H161.43V23.8693C161.865 22.977 162.301 22.5308 162.737 22.3077C163.172 22.0846 163.608 21.8616 164.044 21.8616C164.697 21.8616 165.568 22.0846 166.222 22.5308L165.133 25.2077C164.697 24.9846 164.261 24.7616 163.826 24.7616C163.172 24.7616 162.954 24.7616 162.519 25.2077C162.301 25.4308 162.083 25.877 161.865 26.5462C161.647 26.9923 161.647 28.3308 161.647 30.5616V34.1308Z" fill="#403E3E"/>
<path fill-rule="evenodd" clip-rule="evenodd" d="M4.15384 40.1538C3.06468 39.9307 2.84684 39.2615 3.06468 38.1461C11.3423 32.123 19.62 26.5461 28.3334 21.4153V21.1923C28.1155 16.5077 31.8187 12.4923 36.611 12.4923C41.1855 12.2692 45.1065 16.0615 45.1065 20.9692C45.3244 25.6538 41.6212 29.6692 36.8289 29.6692C34.8684 29.8923 32.9079 29 31.383 27.6615C22.4519 32.123 13.5207 36.1384 4.15384 40.1538ZM31.1652 19.6307C32.4722 18.7384 33.7792 18.0692 35.0862 17.1769C39.0072 15.1692 42.0569 22.3077 39.4429 23.6461C37.4824 24.5384 35.7397 25.4307 33.997 26.323C34.8684 26.7692 35.7397 26.9923 36.8289 26.9923C40.0964 26.9923 42.7104 24.3153 42.4925 20.9692C42.4925 17.623 39.8785 15.1692 36.611 15.1692C33.997 15.1692 31.8187 17.1769 31.1652 19.6307Z" fill="#F58634"/>
<path fill-rule="evenodd" clip-rule="evenodd" d="M49.6811 35.023V35.2461V51.3076H23.7589V35.2461V35.023V32.123C25.5016 31.2307 27.4621 30.3384 29.4226 29.4461C31.3831 31.2307 33.9971 32.3461 36.8289 32.3461C42.9283 32.3461 47.9384 27.2153 47.9384 20.9692C47.9384 14.723 42.9283 9.59226 36.8289 9.59226C30.7296 9.59226 25.7194 14.723 25.7194 20.9692C25.7194 21.1923 25.7194 21.4153 25.7194 21.8615C25.0659 22.0846 24.4124 22.5307 23.7589 22.9769V20.0769C23.7589 3.34611 49.8989 2.67688 49.6811 20.0769V35.023ZM36.8289 37.2538C39.4429 37.2538 41.4034 39.4846 41.4034 42.1615V42.3846C41.4034 45.0615 39.4429 47.0692 36.8289 47.0692C34.2149 47.0692 32.0366 45.0615 32.0366 42.3846V42.1615C32.0366 39.4846 34.2149 37.2538 36.8289 37.2538Z" fill="#403E3E"/>
<path d="M36.8288 44.8385C38.2725 44.8385 39.4428 43.64 39.4428 42.1615C39.4428 40.6831 38.2725 39.4846 36.8288 39.4846C35.3852 39.4846 34.2148 40.6831 34.2148 42.1615C34.2148 43.64 35.3852 44.8385 36.8288 44.8385Z" fill="#F58634"/>
<path d="M56.8695 46.8461L58.1765 46.623C58.1765 47.0692 58.3943 47.5153 58.6122 47.9615C58.83 48.1846 59.0478 48.4077 59.4835 48.6307C59.9192 48.8538 60.3548 48.8538 61.0083 48.8538C61.444 48.8538 61.8797 48.8538 62.0975 48.6307C62.5332 48.6307 62.751 48.4077 62.9688 48.1846C63.1867 47.9615 63.1867 47.5153 63.1867 47.2923C63.1867 47.0692 63.1867 46.623 62.9688 46.4C62.751 46.1769 62.5332 46.1769 62.0975 45.9538C61.8797 45.7307 61.444 45.7307 60.5727 45.5077C59.7013 45.2846 59.0478 45.0615 58.6122 44.8384C58.1765 44.6153 57.9587 44.3923 57.7408 43.9461C57.523 43.5 57.3052 43.2769 57.3052 42.8307C57.3052 42.1615 57.523 41.7153 57.7408 41.2692C57.9587 40.823 58.3943 40.6 58.83 40.3769C59.4835 40.1538 59.9192 40.1538 60.5727 40.1538C61.444 40.1538 61.8797 40.1538 62.5332 40.3769C62.9688 40.6 63.4045 41.0461 63.8402 41.4923C64.058 41.9384 64.2758 42.3846 64.2758 43.0538H62.9688C62.9688 42.3846 62.751 41.9384 62.3153 41.7153C61.8797 41.2692 61.444 41.2692 60.7905 41.2692C59.9192 41.2692 59.4835 41.2692 59.0478 41.7153C58.6122 41.9384 58.6122 42.1615 58.6122 42.6077C58.6122 43.0538 58.6122 43.2769 58.83 43.5C59.0478 43.723 59.7013 43.9461 60.7905 44.1692C61.8797 44.3923 62.5332 44.6153 62.9688 44.8384C63.4045 45.0615 63.8402 45.2846 64.058 45.7307C64.2758 46.1769 64.4937 46.623 64.4937 47.0692C64.4937 47.7384 64.2758 48.1846 64.058 48.6307C63.8402 49.0769 63.4045 49.523 62.751 49.7461C62.3153 49.9692 61.6618 49.9692 61.0083 49.9692C60.137 49.9692 59.4835 49.9692 58.83 49.7461C58.1765 49.523 57.7408 49.0769 57.523 48.6307C57.0873 47.9615 57.0873 47.5153 56.8695 46.8461Z" fill="#403E3E"/>
<path d="M70.8109 47.7385H71.9001C71.6822 48.4077 71.4644 49.077 70.8109 49.5231C70.3752 49.7462 69.7217 49.9693 68.8504 49.9693C67.9791 49.9693 67.1077 49.7462 66.4542 49.077C66.0186 48.4077 65.5829 47.5154 65.5829 46.4C65.5829 45.2847 66.0186 44.3923 66.4542 43.7231C67.1077 43.0539 67.9791 42.8308 68.8504 42.8308C69.7217 42.8308 70.5931 43.0539 71.0287 43.7231C71.6822 44.3923 71.9001 45.2847 71.9001 46.4V46.6231H66.8899C66.8899 47.5154 67.1077 47.9616 67.5434 48.4077C67.7612 48.8539 68.4147 49.077 68.8504 49.077C69.2861 49.077 69.7217 48.8539 69.9396 48.6308C70.3752 48.4077 70.5931 48.1847 70.8109 47.7385ZM66.8899 45.7308H70.8109C70.5931 45.0616 70.5931 44.6154 70.3752 44.3923C69.9396 43.9462 69.5039 43.7231 68.8504 43.7231C68.4147 43.7231 67.9791 43.9462 67.5434 44.1693C67.1077 44.6154 66.8899 45.0616 66.8899 45.7308Z" fill="#403E3E"/>
<path d="M73.4249 49.9693V42.8308H74.5141V43.9462C74.7319 43.5 74.9498 43.0539 75.1676 43.0539C75.3854 42.8308 75.6033 42.8308 75.8211 42.8308C76.2568 42.8308 76.6924 42.8308 77.1281 43.0539L76.6924 44.1693C76.4746 43.9462 76.0389 43.9462 75.8211 43.9462C75.6033 43.9462 75.3854 43.9462 75.1676 44.1693C74.9498 44.3923 74.7319 44.6154 74.7319 44.8385C74.5141 45.2847 74.5141 45.7308 74.5141 46.177V49.9693H73.4249Z" fill="#403E3E"/>
<path d="M79.7421 49.9693L77.1281 42.8308H78.2172L79.7421 47.0693C79.9599 47.5154 80.1777 47.9616 80.1777 48.4077C80.3956 48.1847 80.3956 47.7385 80.6134 47.0693L82.1382 42.8308H83.4452L80.8312 49.9693H79.7421Z" fill="#403E3E"/>
<path d="M84.3165 41.4923V40.1538H85.6235V41.4923H84.3165ZM84.3165 49.9692V42.8307H85.6235V49.9692H84.3165Z" fill="#403E3E"/>
<path d="M91.7229 47.2923L93.0299 47.5154C92.812 48.1847 92.5942 48.8539 91.9407 49.3C91.505 49.7462 90.8515 49.9693 90.198 49.9693C89.1089 49.9693 88.4554 49.7462 87.8019 49.077C87.3662 48.4077 86.9305 47.5154 86.9305 46.4C86.9305 45.7308 87.1484 45.0616 87.3662 44.3923C87.584 43.9462 88.0197 43.5 88.4554 43.0539C88.891 42.8308 89.5445 42.8308 90.198 42.8308C90.8515 42.8308 91.505 42.8308 91.9407 43.277C92.3764 43.7231 92.5942 44.1693 92.812 44.8385L91.7229 45.0616C91.505 44.6154 91.505 44.3923 91.0694 44.1693C90.8515 43.7231 90.6337 43.7231 90.198 43.7231C89.5445 43.7231 89.1089 43.9462 88.6732 44.3923C88.4554 44.8385 88.2375 45.5077 88.2375 46.4C88.2375 47.2923 88.4554 47.9616 88.6732 48.4077C89.1089 48.8539 89.5445 49.077 89.9802 49.077C90.6337 49.077 90.8515 48.8539 91.2872 48.6308C91.505 48.4077 91.7229 47.9616 91.7229 47.2923Z" fill="#403E3E"/>
<path d="M98.6936 47.7385H99.7827C99.5649 48.4077 99.3471 49.077 98.6936 49.5231C98.2579 49.7462 97.6044 49.9693 96.7331 49.9693C95.8617 49.9693 94.9904 49.7462 94.3369 49.077C93.9012 48.4077 93.4656 47.5154 93.4656 46.4C93.4656 45.2847 93.9012 44.3923 94.3369 43.7231C94.9904 43.0539 95.8617 42.8308 96.7331 42.8308C97.6044 42.8308 98.4757 43.0539 98.9114 43.7231C99.5649 44.3923 99.7827 45.2847 99.7827 46.4V46.6231H94.7726C94.7726 47.5154 94.9904 47.9616 95.4261 48.4077C95.8617 48.8539 96.2974 49.077 96.7331 49.077C97.1687 49.077 97.6044 48.8539 97.8222 48.6308C98.2579 48.4077 98.4757 48.1847 98.6936 47.7385ZM94.7726 45.7308H98.6936C98.4757 45.0616 98.4757 44.6154 98.2579 44.3923C97.8222 43.9462 97.3866 43.7231 96.7331 43.7231C96.2974 43.7231 95.8617 43.9462 95.4261 44.1693C94.9904 44.6154 94.7726 45.0616 94.7726 45.7308Z" fill="#403E3E"/>
<path d="M105.011 49.9692V40.1538H109.367C110.239 40.1538 110.892 40.3769 111.328 40.3769C111.764 40.6 111.981 41.0461 112.199 41.4923C112.635 41.9384 112.635 42.3846 112.635 42.8307C112.635 43.5 112.417 44.1692 111.981 44.6153C111.546 45.0615 110.892 45.2846 110.021 45.5077C110.239 45.7307 110.674 45.7307 110.674 45.9538C111.11 46.4 111.546 46.8461 111.764 47.2923L113.506 49.9692H111.981L110.674 47.9615C110.239 47.2923 110.021 46.8461 109.803 46.623C109.585 46.1769 109.367 45.9538 109.15 45.9538C108.932 45.7307 108.714 45.7307 108.496 45.7307C108.278 45.5077 108.06 45.5077 107.843 45.5077H106.318V49.9692H105.011ZM106.318 44.3923H109.15C109.585 44.3923 110.021 44.3923 110.457 44.3923C110.674 44.1692 110.892 43.9461 111.11 43.723C111.328 43.5 111.328 43.2769 111.328 42.8307C111.328 42.3846 111.11 41.9384 110.892 41.7153C110.674 41.4923 110.021 41.2692 109.367 41.2692H106.318V44.3923Z" fill="#403E3E"/>
<path d="M119.17 47.7385H120.259C120.259 48.4077 119.823 49.077 119.388 49.5231C118.734 49.7462 118.081 49.9693 117.427 49.9693C116.338 49.9693 115.467 49.7462 115.031 49.077C114.378 48.4077 114.16 47.5154 114.16 46.4C114.16 45.2847 114.378 44.3923 115.031 43.7231C115.685 43.0539 116.338 42.8308 117.209 42.8308C118.299 42.8308 118.952 43.0539 119.606 43.7231C120.041 44.3923 120.477 45.2847 120.477 46.4V46.6231H115.249C115.249 47.5154 115.467 47.9616 115.902 48.4077C116.338 48.8539 116.774 49.077 117.427 49.077C117.863 49.077 118.081 48.8539 118.516 48.6308C118.734 48.4077 118.952 48.1847 119.17 47.7385ZM115.249 45.7308H119.17C119.17 45.0616 118.952 44.6154 118.734 44.3923C118.299 43.9462 117.863 43.7231 117.209 43.7231C116.774 43.7231 116.338 43.9462 115.902 44.1693C115.685 44.6154 115.467 45.0616 115.249 45.7308Z" fill="#403E3E"/>
<path d="M126.358 49.9692V49.0769C125.923 49.7461 125.269 49.9692 124.398 49.9692C123.744 49.9692 123.309 49.9692 122.873 49.523C122.437 49.3 122.002 48.8538 121.784 48.4077C121.566 47.7384 121.348 47.0692 121.348 46.4C121.348 45.7307 121.566 45.0615 121.784 44.3923C122.002 43.9461 122.22 43.5 122.655 43.2769C123.309 42.8307 123.744 42.8307 124.18 42.8307C124.616 42.8307 125.051 42.8307 125.487 43.0538C125.705 43.2769 125.923 43.5 126.141 43.723V40.1538H127.448V49.9692H126.358ZM122.655 46.4C122.655 47.2923 122.873 47.9615 123.091 48.4077C123.527 48.8538 123.962 49.0769 124.398 49.0769C125.051 49.0769 125.487 48.8538 125.705 48.4077C126.141 47.9615 126.358 47.2923 126.358 46.4C126.358 45.5077 126.141 44.8384 125.705 44.3923C125.269 43.9461 124.834 43.723 124.398 43.723C123.962 43.723 123.527 43.9461 123.091 44.3923C122.655 44.8384 122.655 45.5077 122.655 46.4Z" fill="#403E3E"/>
<path d="M133.765 47.7385H135.072C134.854 48.4077 134.418 49.077 133.983 49.5231C133.547 49.7462 132.893 49.9693 132.022 49.9693C131.151 49.9693 130.279 49.7462 129.626 49.077C129.19 48.4077 128.755 47.5154 128.755 46.4C128.755 45.2847 129.19 44.3923 129.626 43.7231C130.279 43.0539 130.933 42.8308 132.022 42.8308C132.893 42.8308 133.547 43.0539 134.2 43.7231C134.854 44.3923 135.072 45.2847 135.072 46.4V46.6231H130.062C130.062 47.5154 130.279 47.9616 130.715 48.4077C130.933 48.8539 131.586 49.077 132.022 49.077C132.458 49.077 132.893 48.8539 133.111 48.6308C133.547 48.4077 133.765 48.1847 133.765 47.7385ZM130.062 45.7308H133.765C133.765 45.0616 133.765 44.6154 133.329 44.3923C133.111 43.9462 132.676 43.7231 132.022 43.7231C131.369 43.7231 130.933 43.9462 130.715 44.1693C130.279 44.6154 130.062 45.0616 130.062 45.7308Z" fill="#403E3E"/>
<path d="M136.814 49.9692V43.723H135.725V42.8307H136.814V42.1615C136.814 41.4923 137.032 41.0461 137.25 40.6C137.468 40.1538 138.121 40.1538 138.557 40.1538C138.993 40.1538 139.428 40.1538 139.864 40.1538L139.646 41.2692C139.428 41.2692 139.211 41.0461 138.993 41.0461C138.557 41.0461 138.339 41.2692 138.121 41.4923C138.121 41.4923 137.904 41.9384 137.904 42.3846V42.8307H139.428V43.723H137.904V49.9692H136.814ZM140.082 41.4923V40.1538H141.389V41.4923H140.082ZM140.082 49.9692V42.8307H141.389V49.9692H140.082Z" fill="#403E3E"/>
<path d="M143.132 49.9693V42.8308H144.221V43.9462C144.656 43.0539 145.31 42.8308 146.399 42.8308C146.835 42.8308 147.053 42.8308 147.488 43.0539C147.924 43.0539 148.142 43.277 148.36 43.5C148.36 43.7231 148.577 44.1693 148.577 44.3923C148.577 44.6154 148.795 45.0616 148.795 45.5077V49.9693H147.488V45.7308C147.488 45.0616 147.488 44.8385 147.488 44.6154C147.27 44.3923 147.053 44.1693 146.835 43.9462C146.617 43.7231 146.399 43.7231 146.181 43.7231C145.528 43.7231 145.092 43.9462 144.874 44.1693C144.439 44.6154 144.221 45.0616 144.221 46.177V49.9693H143.132Z" fill="#403E3E"/>
<path d="M155.112 47.7385H156.419C156.202 48.4077 155.766 49.077 155.33 49.5231C154.895 49.7462 154.241 49.9693 153.37 49.9693C152.281 49.9693 151.627 49.7462 150.974 49.077C150.32 48.4077 150.102 47.5154 150.102 46.4C150.102 45.2847 150.32 44.3923 150.974 43.7231C151.627 43.0539 152.281 42.8308 153.37 42.8308C154.241 42.8308 154.895 43.0539 155.548 43.7231C156.202 44.3923 156.419 45.2847 156.419 46.4V46.6231H151.191C151.409 47.5154 151.627 47.9616 151.845 48.4077C152.281 48.8539 152.716 49.077 153.37 49.077C153.805 49.077 154.241 48.8539 154.459 48.6308C154.677 48.4077 154.895 48.1847 155.112 47.7385ZM151.409 45.7308H155.112C155.112 45.0616 154.895 44.6154 154.677 44.3923C154.459 43.9462 153.805 43.7231 153.37 43.7231C152.716 43.7231 152.281 43.9462 151.845 44.1693C151.627 44.6154 151.409 45.0616 151.409 45.7308Z" fill="#403E3E"/>
<path d="M162.301 49.9692V49.0769C161.865 49.7461 161.212 49.9692 160.34 49.9692C159.687 49.9692 159.251 49.9692 158.816 49.523C158.38 49.3 157.944 48.8538 157.726 48.4077C157.509 47.7384 157.291 47.0692 157.291 46.4C157.291 45.7307 157.509 45.0615 157.726 44.3923C157.944 43.9461 158.38 43.5 158.816 43.2769C159.251 42.8307 159.687 42.8307 160.34 42.8307C160.776 42.8307 160.994 42.8307 161.43 43.0538C161.647 43.2769 161.865 43.5 162.083 43.723V40.1538H163.39V49.9692H162.301ZM158.598 46.4C158.598 47.2923 158.816 47.9615 159.033 48.4077C159.469 48.8538 159.905 49.0769 160.34 49.0769C160.994 49.0769 161.43 48.8538 161.647 48.4077C162.083 47.9615 162.301 47.2923 162.301 46.4C162.301 45.5077 162.083 44.8384 161.647 44.3923C161.43 43.9461 160.994 43.723 160.34 43.723C159.905 43.723 159.469 43.9461 159.033 44.3923C158.816 44.8384 158.598 45.5077 158.598 46.4Z" fill="#403E3E"/>
</svg>
