<svg width="60" height="60" viewBox="0 0 60 60" fill="none" xmlns="http://www.w3.org/2000/svg">
<rect width="60" height="60" rx="30" fill="#F58634" fill-opacity="0.15"/>
<g clip-path="url(#clip0_3_28753)">
<path d="M46.929 12.7111C46.8274 12.4583 46.6323 12.2543 46.3842 12.1416C46.1362 12.029 45.8542 12.0163 45.597 12.1062C45.3398 12.1962 45.1271 12.3818 45.0033 12.6245C44.8795 12.8672 44.854 13.1484 44.9322 13.4094C46.558 18.0819 43.331 21.5714 40.8705 23.4404L39.8765 22.0159C39.5422 21.5381 38.795 21.1409 38.214 21.1339L32.635 21.1584C31.9534 21.179 31.2901 21.3833 30.7152 21.7499L14.2757 33.2771C13.8933 33.5462 13.6331 33.9558 13.5521 34.4164C13.4711 34.8769 13.5759 35.3507 13.8435 35.7341L21.3142 46.4231C21.8742 47.2194 22.7685 47.1231 23.5665 46.5666L40.006 35.0376C40.4785 34.7034 41.0245 33.9824 41.217 33.4311L42.9635 27.9274C43.156 27.3779 43.0387 26.5396 42.7045 26.0619L42.099 25.1939C45.403 22.6616 48.833 18.1869 46.929 12.7111ZM39.2797 29.0876C38.9769 29.2996 38.6352 29.4499 38.2743 29.5298C37.9133 29.6097 37.5402 29.6177 37.1761 29.5533C36.8121 29.489 36.4643 29.3535 36.1526 29.1547C35.841 28.9559 35.5715 28.6976 35.3597 28.3946C34.9308 27.7815 34.7627 27.0233 34.8923 26.2864C35.0219 25.5495 35.4386 24.8941 36.051 24.4641C36.531 24.1278 37.1041 23.9499 37.6902 23.9552C38.2763 23.9605 38.8461 24.1489 39.32 24.4939C38.844 24.7809 38.5167 24.9489 38.4555 24.9751C38.2385 25.0786 38.0632 25.2526 37.9581 25.4688C37.853 25.6849 37.8245 25.9303 37.8772 26.1648C37.9298 26.3993 38.0606 26.6089 38.248 26.7594C38.4354 26.9098 38.6684 26.9922 38.9087 26.9929C39.0592 26.9929 39.2132 26.9579 39.3585 26.8896C39.698 26.7286 40.062 26.5379 40.4417 26.3121C40.5291 26.8372 40.4663 27.3763 40.2608 27.8674C40.0552 28.3584 39.7151 28.7814 39.2797 29.0876Z" fill="#F58634"/>
</g>
<defs>
<clipPath id="clip0_3_28753">
<rect width="35" height="35" fill="white" transform="translate(13 12)"/>
</clipPath>
</defs>
</svg>
