<svg width="40" height="40" viewBox="0 0 40 40" fill="none" xmlns="http://www.w3.org/2000/svg">
<rect width="40" height="40" rx="20" fill="#FCD9C0"/>
<g clip-path="url(#clip0_454_17691)">
<path d="M20 21C21.657 21 23 22.343 23 24C23 24.85 22.647 25.616 22.08 26.162L20.17 28H23V30H17V28.276L20.693 24.721C20.883 24.538 21 24.283 21 24C21 23.448 20.552 23 20 23C19.448 23 19 23.448 19 24H17C17 22.343 18.343 21 20 21ZM26 21V25H28V21H30V30H28V27H24V21H26ZM12 20C12 22.527 13.171 24.78 15 26.246V28.662C12.011 26.933 10 23.702 10 20H12ZM20 10C25.185 10 29.449 13.947 29.95 19H27.938C27.446 15.054 24.08 12 20 12C17.25 12 14.824 13.387 13.385 15.5H16V17.5H10V11.5H12V14C13.824 11.57 16.729 10 20 10Z" fill="#F58634"/>
<path d="M20 21C21.657 21 23 22.343 23 24C23 24.85 22.647 25.616 22.08 26.162L20.17 28H23V30H17V28.276L20.693 24.721C20.883 24.538 21 24.283 21 24C21 23.448 20.552 23 20 23C19.448 23 19 23.448 19 24H17C17 22.343 18.343 21 20 21ZM26 21V25H28V21H30V30H28V27H24V21H26ZM12 20C12 22.527 13.171 24.78 15 26.246V28.662C12.011 26.933 10 23.702 10 20H12ZM20 10C25.185 10 29.449 13.947 29.95 19H27.938C27.446 15.054 24.08 12 20 12C17.25 12 14.824 13.387 13.385 15.5H16V17.5H10V11.5H12V14C13.824 11.57 16.729 10 20 10Z" fill="black" fill-opacity="0.2"/>
</g>
<defs>
<clipPath id="clip0_454_17691">
<rect width="24" height="24" fill="white" transform="translate(8 8)"/>
</clipPath>
</defs>
</svg>
