<svg width="102" height="101" viewBox="0 0 102 101" fill="none" xmlns="http://www.w3.org/2000/svg">
<path d="M89.25 79.9583H97.75V88.375H4.25V79.9583H12.75V16.8333C12.75 15.7172 13.1978 14.6468 13.9948 13.8576C14.7918 13.0684 15.8728 12.625 17 12.625H59.5C60.6272 12.625 61.7082 13.0684 62.5052 13.8576C63.3022 14.6468 63.75 15.7172 63.75 16.8333V79.9583H80.75V46.2917H72.25V37.875H85C86.1272 37.875 87.2082 38.3184 88.0052 39.1076C88.8022 39.8968 89.25 40.9672 89.25 42.0833V79.9583ZM21.25 21.0417V79.9583H55.25V21.0417H21.25ZM29.75 46.2917H46.75V54.7083H29.75V46.2917ZM29.75 29.4583H46.75V37.875H29.75V29.4583Z" fill="#B8BDC6"/>
</svg>
