<svg width="80" height="80" viewBox="0 0 80 80" fill="none" xmlns="http://www.w3.org/2000/svg">
<g clip-path="url(#clip0_277_15581)">
<path d="M73.3327 36.6673V66.6673H66.666V56.6673H13.3327V66.6673H6.66602V13.334H13.3327V46.6673H39.9993V23.334H59.9993C63.5356 23.334 66.9269 24.7387 69.4274 27.2392C71.9279 29.7397 73.3327 33.1311 73.3327 36.6673ZM26.666 43.334C24.0139 43.334 21.4703 42.2804 19.5949 40.4051C17.7196 38.5297 16.666 35.9861 16.666 33.334C16.666 30.6818 17.7196 28.1383 19.5949 26.2629C21.4703 24.3876 24.0139 23.334 26.666 23.334C29.3182 23.334 31.8617 24.3876 33.7371 26.2629C35.6124 28.1383 36.666 30.6818 36.666 33.334C36.666 35.9861 35.6124 38.5297 33.7371 40.4051C31.8617 42.2804 29.3182 43.334 26.666 43.334Z" fill="#E8EAED"/>
</g>
<defs>
<clipPath id="clip0_277_15581">
<rect width="80" height="80" fill="white"/>
</clipPath>
</defs>
</svg>
