<svg width="40" height="40" viewBox="0 0 40 40" fill="none" xmlns="http://www.w3.org/2000/svg">
<rect width="40" height="40" rx="20" fill="#FCD9C0"/>
<g clip-path="url(#clip0_454_17731)">
<path d="M13 16.9992C13.2652 16.9992 13.5196 17.1046 13.7071 17.2921C13.8946 17.4797 14 17.734 14 17.9992C15.5711 17.9969 17.097 18.5255 18.33 19.4992H20.5C21.832 19.4992 23.03 20.0782 23.853 20.9982L27 20.9992C27.9453 20.999 28.8712 21.2667 29.6705 21.7713C30.4698 22.2759 31.1097 22.9967 31.516 23.8502C29.151 26.9712 25.322 28.9992 21 28.9992C18.21 28.9992 15.85 28.3962 13.94 27.3412C13.87 27.5343 13.7422 27.7011 13.574 27.8188C13.4058 27.9366 13.2053 27.9996 13 27.9992H10C9.73478 27.9992 9.48043 27.8939 9.29289 27.7063C9.10536 27.5188 9 27.2644 9 26.9992V17.9992C9 17.734 9.10536 17.4797 9.29289 17.2921C9.48043 17.1046 9.73478 16.9992 10 16.9992H13ZM14.001 19.9992L14 25.0202L14.045 25.0532C15.84 26.3132 18.178 26.9992 21 26.9992C24.004 26.9992 26.799 25.8432 28.835 23.8692L28.968 23.7362L28.848 23.6362C28.3758 23.2664 27.8034 23.0469 27.205 23.0062L27 22.9992L24.888 22.9982C24.961 23.3202 25 23.6552 25 23.9992V24.9992H16V22.9992L22.79 22.9982L22.756 22.9202C22.5644 22.5198 22.2696 22.1775 21.9019 21.9287C21.5343 21.6798 21.107 21.5333 20.664 21.5042L20.5 21.4992H17.57C17.1053 21.0239 16.5503 20.6464 15.9375 20.3888C15.3248 20.1312 14.6667 19.9987 14.002 19.9992H14.001ZM12 18.9992H11V25.9992H12V18.9992ZM21.646 11.5742L22 11.9292L22.354 11.5752C22.5858 11.3414 22.8615 11.1557 23.1653 11.0288C23.469 10.9019 23.7949 10.8362 24.1241 10.8355C24.4533 10.8348 24.7795 10.8992 25.0837 11.0249C25.388 11.1506 25.6645 11.3351 25.8973 11.568C26.13 11.8008 26.3145 12.0773 26.4401 12.3816C26.5657 12.686 26.63 13.0121 26.6292 13.3413C26.6285 13.6705 26.5627 13.9964 26.4356 14.3001C26.3086 14.6038 26.1228 14.8795 25.889 15.1112L22 18.9992L18.11 15.1092C17.8762 14.8774 17.6905 14.6017 17.5636 14.2979C17.4366 13.9942 17.3709 13.6683 17.3703 13.3391C17.3696 13.0099 17.434 12.6838 17.5597 12.3795C17.6854 12.0752 17.8699 11.7987 18.1027 11.566C18.3356 11.3332 18.6121 11.1487 18.9164 11.0231C19.2207 10.8975 19.5469 10.8332 19.8761 10.834C20.2053 10.8348 20.5311 10.9005 20.8349 11.0276C21.1386 11.1546 21.4143 11.3404 21.646 11.5742ZM19.526 12.9892C19.4431 13.0716 19.3917 13.1805 19.3808 13.2969C19.3698 13.4132 19.4 13.5298 19.466 13.6262L19.524 13.6952L22 16.1692L24.476 13.6952C24.5588 13.6125 24.61 13.5033 24.6206 13.3867C24.6312 13.2701 24.6006 13.1535 24.534 13.0572L24.476 12.9872C24.3931 12.9045 24.2839 12.8536 24.1673 12.8431C24.0507 12.8327 23.9342 12.8635 23.838 12.9302L23.768 12.9882L21.999 14.7562L20.232 12.9862L20.164 12.9302C20.0677 12.8637 19.9511 12.833 19.8345 12.8436C19.7179 12.8542 19.6087 12.9054 19.526 12.9882V12.9892Z" fill="#F58634"/>
<path d="M13 16.9992C13.2652 16.9992 13.5196 17.1046 13.7071 17.2921C13.8946 17.4797 14 17.734 14 17.9992C15.5711 17.9969 17.097 18.5255 18.33 19.4992H20.5C21.832 19.4992 23.03 20.0782 23.853 20.9982L27 20.9992C27.9453 20.999 28.8712 21.2667 29.6705 21.7713C30.4698 22.2759 31.1097 22.9967 31.516 23.8502C29.151 26.9712 25.322 28.9992 21 28.9992C18.21 28.9992 15.85 28.3962 13.94 27.3412C13.87 27.5343 13.7422 27.7011 13.574 27.8188C13.4058 27.9366 13.2053 27.9996 13 27.9992H10C9.73478 27.9992 9.48043 27.8939 9.29289 27.7063C9.10536 27.5188 9 27.2644 9 26.9992V17.9992C9 17.734 9.10536 17.4797 9.29289 17.2921C9.48043 17.1046 9.73478 16.9992 10 16.9992H13ZM14.001 19.9992L14 25.0202L14.045 25.0532C15.84 26.3132 18.178 26.9992 21 26.9992C24.004 26.9992 26.799 25.8432 28.835 23.8692L28.968 23.7362L28.848 23.6362C28.3758 23.2664 27.8034 23.0469 27.205 23.0062L27 22.9992L24.888 22.9982C24.961 23.3202 25 23.6552 25 23.9992V24.9992H16V22.9992L22.79 22.9982L22.756 22.9202C22.5644 22.5198 22.2696 22.1775 21.9019 21.9287C21.5343 21.6798 21.107 21.5333 20.664 21.5042L20.5 21.4992H17.57C17.1053 21.0239 16.5503 20.6464 15.9375 20.3888C15.3248 20.1312 14.6667 19.9987 14.002 19.9992H14.001ZM12 18.9992H11V25.9992H12V18.9992ZM21.646 11.5742L22 11.9292L22.354 11.5752C22.5858 11.3414 22.8615 11.1557 23.1653 11.0288C23.469 10.9019 23.7949 10.8362 24.1241 10.8355C24.4533 10.8348 24.7795 10.8992 25.0837 11.0249C25.388 11.1506 25.6645 11.3351 25.8973 11.568C26.13 11.8008 26.3145 12.0773 26.4401 12.3816C26.5657 12.686 26.63 13.0121 26.6292 13.3413C26.6285 13.6705 26.5627 13.9964 26.4356 14.3001C26.3086 14.6038 26.1228 14.8795 25.889 15.1112L22 18.9992L18.11 15.1092C17.8762 14.8774 17.6905 14.6017 17.5636 14.2979C17.4366 13.9942 17.3709 13.6683 17.3703 13.3391C17.3696 13.0099 17.434 12.6838 17.5597 12.3795C17.6854 12.0752 17.8699 11.7987 18.1027 11.566C18.3356 11.3332 18.6121 11.1487 18.9164 11.0231C19.2207 10.8975 19.5469 10.8332 19.8761 10.834C20.2053 10.8348 20.5311 10.9005 20.8349 11.0276C21.1386 11.1546 21.4143 11.3404 21.646 11.5742ZM19.526 12.9892C19.4431 13.0716 19.3917 13.1805 19.3808 13.2969C19.3698 13.4132 19.4 13.5298 19.466 13.6262L19.524 13.6952L22 16.1692L24.476 13.6952C24.5588 13.6125 24.61 13.5033 24.6206 13.3867C24.6312 13.2701 24.6006 13.1535 24.534 13.0572L24.476 12.9872C24.3931 12.9045 24.2839 12.8536 24.1673 12.8431C24.0507 12.8327 23.9342 12.8635 23.838 12.9302L23.768 12.9882L21.999 14.7562L20.232 12.9862L20.164 12.9302C20.0677 12.8637 19.9511 12.833 19.8345 12.8436C19.7179 12.8542 19.6087 12.9054 19.526 12.9882V12.9892Z" fill="black" fill-opacity="0.2"/>
</g>
<defs>
<clipPath id="clip0_454_17731">
<rect width="24" height="24" fill="white" transform="translate(8 8)"/>
</clipPath>
</defs>
</svg>
