<svg width="60" height="60" viewBox="0 0 60 60" fill="none" xmlns="http://www.w3.org/2000/svg">
<rect width="60" height="60" rx="30" fill="#F58634" fill-opacity="0.15"/>
<g clip-path="url(#clip0_3_28774)">
<path d="M13 26.2207C12.9978 23.0032 14.0869 19.88 16.0895 17.3616C18.092 14.8431 20.8895 13.0783 24.0248 12.3556C27.1601 11.6328 30.4479 11.9948 33.3509 13.3825C36.2538 14.7701 38.6003 17.1013 40.0069 19.9951C42.0429 20.9877 43.8123 22.4523 45.1678 24.267C46.5234 26.0817 47.4257 28.194 47.7998 30.4279C48.1738 32.6619 48.0088 34.9529 47.3183 37.1102C46.6279 39.2675 45.4321 41.2286 43.8304 42.8302C42.2288 44.4319 40.2677 45.6277 38.1104 46.3181C35.9531 47.0086 33.6621 47.1736 31.4281 46.7996C29.1942 46.4255 27.0819 45.5232 25.2672 44.1676C23.4525 42.8121 21.9879 41.0427 20.9953 39.0067C18.5978 37.8396 16.5768 36.0218 15.163 33.761C13.7493 31.5001 12.9997 28.8872 13 26.2207ZM24.2525 40.1289C25.2968 41.4832 26.6178 42.5993 28.1275 43.4029C29.6372 44.2064 31.3008 44.6788 33.0075 44.7887C34.7142 44.8985 36.4247 44.6432 38.0249 44.0399C39.6251 43.4365 41.0784 42.4989 42.2876 41.2896C43.4969 40.0803 44.4345 38.6271 45.0379 37.0269C45.6413 35.4267 45.8965 33.7162 45.7867 32.0095C45.6768 30.3028 45.2044 28.6392 44.4009 27.1295C43.5974 25.6198 42.4812 24.2988 41.1269 23.2545C41.6222 25.5742 41.5293 27.981 40.8567 30.2556C40.184 32.5303 38.953 34.6005 37.2757 36.2777C35.5985 37.955 33.5283 39.186 31.2536 39.8586C28.979 40.5313 26.5722 40.6242 24.2525 40.1289ZM22.6491 37.3529C23.4453 37.6825 24.2795 37.9231 25.1516 38.0748L21.9272 34.8504C22.0789 35.7211 22.3195 36.5552 22.6491 37.3529ZM28.3672 38.1973C29.2392 38.1148 30.0996 37.9373 30.9331 37.6679L22.5681 29.3051C22.274 30.0976 22.0572 30.9166 21.9206 31.7507L28.3672 38.1973ZM33.0856 36.7273C33.736 36.3627 34.3471 35.9427 34.9188 35.4673L24.8519 25.4026C24.3737 25.9676 23.9441 26.5721 23.5678 27.2095L33.0856 36.7273ZM36.4653 33.9186C36.9393 33.3498 37.3593 32.7395 37.7253 32.0876L28.2097 22.5676C27.5715 22.9438 26.9663 23.3734 26.4006 23.8517L36.4631 33.9186H36.4653ZM38.6659 29.9329C38.9328 29.1133 39.1093 28.2588 39.1953 27.3692L32.7488 20.9226C31.9029 21.0626 31.0877 21.2784 30.3031 21.5701L38.6659 29.9351V29.9329ZM39.0728 24.1536C38.9235 23.2957 38.6814 22.4566 38.3509 21.6511C37.5454 21.3206 36.7063 21.0785 35.8484 20.9292L39.0728 24.1536Z" fill="#F58634"/>
</g>
<defs>
<clipPath id="clip0_3_28774">
<rect width="35" height="35" fill="white" transform="translate(13 12)"/>
</clipPath>
</defs>
</svg>
