<svg width="350" height="67" viewBox="0 0 350 67" fill="none" xmlns="http://www.w3.org/2000/svg">
<path d="M113.237 15.4824H107.12V53.4367H113.237V15.4824Z" fill="#293361"/>
<path d="M137.081 40.0067C137.081 45.2619 134.3 47.5976 130.546 47.5976C126.793 47.5976 124.29 45.2619 124.29 40.257V26.7436H118.173V42.0087C118.173 49.5996 122.135 54.0206 128.739 54.0206C132.91 54.0206 135.204 52.1855 136.733 50.1001H137.081L137.637 53.4367H143.267V26.6602H137.081V40.0067Z" fill="#293361"/>
<path d="M197.418 48.1816C192.9 48.1816 190.397 45.7625 189.98 42.1756H209.513C209.583 41.4249 209.652 40.6741 209.652 39.9234C209.583 30.3305 203.535 26.2432 197.07 26.2432C189.563 26.2432 183.863 31.6652 183.863 40.3405C183.863 48.5987 189.285 54.0207 197.487 54.0207C204.3 54.0207 208.818 50.3504 209.791 44.8449H203.744C202.84 47.0138 200.685 48.1816 197.418 48.1816ZM197.001 31.9989C200.894 31.9989 203.188 34.0843 203.535 37.0038H190.049C190.675 34.2511 192.9 31.9989 197.001 31.9989Z" fill="#293361"/>
<path d="M220.079 30.5813H219.732L219.176 26.7441H213.615V53.5207H219.732V42.0093C219.732 36.8375 222.234 33.9179 226.892 33.9179C227.726 33.9179 228.56 34.0013 229.394 34.1682V26.7441H228.421C224.32 26.7441 221.817 27.7451 220.079 30.5813Z" fill="#293361"/>
<path d="M259.494 45.0957H259.146L253.863 28.4125H247.537L242.393 45.0957H241.976L237.041 26.7441H230.993L238.501 53.4373H245.174L250.526 36.4204H250.874L256.157 53.4373H262.9L270.407 26.7441H264.29L259.494 45.0957Z" fill="#293361"/>
<path d="M294.876 45.6791V36.7536C294.876 29.4964 289.732 26.2432 283.406 26.2432C276.663 26.2432 272.423 30.0803 271.797 35.836H277.914C278.332 33.3335 280.139 31.9154 283.337 31.9154C286.534 31.9154 288.689 33.3335 288.689 36.3365V37.0038L278.679 37.9214C274.022 38.3385 270.685 40.841 270.685 46.0128C270.685 51.4348 274.578 54.0207 280.278 54.0207C284.866 54.0207 287.716 52.5192 289.384 50.1836H289.662C290.635 52.7695 292.582 53.5202 294.737 53.5202H297.309V48.0982H296.753C295.501 48.0148 294.876 47.264 294.876 45.6791ZM288.759 42.843C288.759 47.0972 284.588 48.4318 280.973 48.4318C278.54 48.4318 276.941 47.6811 276.941 45.6791C276.941 43.8439 278.332 42.9264 280.347 42.7595L288.759 42.0088V42.843Z" fill="#293361"/>
<path d="M317.607 26.7441L310.447 46.0967H310.03L302.8 26.7441H296.127L306.554 53.4373H313.853L324.21 26.7441H317.607Z" fill="#293361"/>
<path d="M343.883 44.761C343.118 46.9298 340.963 48.0976 337.626 48.0976C333.108 48.0976 330.606 45.6785 330.189 42.0917H349.722C349.791 41.3409 349.861 40.5902 349.861 39.8394C349.791 30.2466 343.744 26.1592 337.279 26.1592C329.771 26.1592 324.071 31.5812 324.071 40.2565C324.071 48.5147 329.493 53.9367 337.696 53.9367C344.508 53.9367 349.027 50.2664 350 44.761H343.883ZM337.209 31.9983C341.102 31.9983 343.396 34.0837 343.744 37.0033H330.258C330.884 34.2505 333.178 31.9983 337.209 31.9983Z" fill="#293361"/>
<path d="M97.1103 24.7416C97.1103 22.406 98.5006 21.405 100.308 21.405C101.142 21.405 101.976 21.5718 102.741 21.822L103.784 16.4834C102.324 15.8161 100.725 15.5658 99.1262 15.4824C94.6079 15.4824 90.9236 18.402 90.9236 24.3245V26.6602H85.6406V32.4993H90.9236V53.3533H97.1103V32.4993H104.062V26.6602H97.1103V24.7416Z" fill="#293361"/>
<path d="M156.822 19.1523H151.122L150.775 26.6598H145.909V32.4989H150.636V45.6786C150.636 50.1831 152.512 53.9368 158.282 53.9368C159.742 53.9368 161.271 53.77 162.661 53.3529V47.764C161.827 48.0143 160.993 48.0977 160.089 48.1811C157.031 48.1811 156.753 46.0957 156.753 44.5108V32.5823H162.87V26.7432H156.822V19.1523Z" fill="#293361"/>
<path d="M176.147 19.1523H170.447L170.099 26.6598H165.233V32.4989H169.96V45.6786C169.96 50.1831 171.837 53.9368 177.607 53.9368C179.067 53.9368 180.596 53.77 181.986 53.3529V47.764C181.152 48.0143 180.318 48.0977 179.414 48.1811C176.356 48.1811 176.077 46.0957 176.077 44.5108V32.5823H182.195V26.7432H176.077V19.1523H176.147Z" fill="#293361"/>
<path d="M0 14.4815C0 10.2273 1.0427 6.55701 3.26713 3.8877L7.09036 8.47558C2.85005 13.564 6.53426 29.3296 18.6296 43.844C30.7249 58.3584 43.9325 62.8629 48.1728 57.7745L51.996 62.3624C44.8361 70.9542 28.5005 64.8648 14.8759 48.4319C5.35253 37.0873 0 24.1578 0 14.4815Z" fill="#009A45"/>
<path d="M24.0518 66.2833C20.5066 66.2833 17.4481 65.0321 15.2236 62.3628L19.0469 57.7749C23.2872 62.8633 36.4252 58.4422 48.5901 43.8444C60.7549 29.2466 64.3696 13.481 60.1293 8.39257L63.9525 3.80469C71.1124 12.3965 66.0379 31.9993 52.3438 48.3489C42.89 59.8603 32.1849 66.2833 24.0518 66.2833Z" fill="#EA5A1E"/>
<path d="M53.6642 41.9253C51.3702 33.9173 46.6433 25.3255 40.3176 17.818C26.693 1.38506 10.3573 -4.70431 3.19742 3.88754C2.71083 4.47146 3.12791 6.05635 4.17061 7.3076C5.21331 8.55884 6.46455 9.05934 7.02066 8.47543C11.261 3.38705 24.399 7.8081 36.5639 22.4059C42.264 29.246 46.5738 36.9203 48.5897 44.0107C50.397 50.2669 50.1885 55.2718 48.1031 57.7743C47.6165 58.3582 48.0336 59.9431 49.0763 61.1944C50.119 62.4456 51.3702 62.9461 51.9263 62.3622C55.541 58.0246 56.1666 50.684 53.6642 41.9253Z" fill="#F5B0CC"/>
<path d="M63.9525 3.971C60.2683 -0.450057 54.2206 -1.2008 46.9217 1.88559C40.2485 4.63832 33.0886 10.3106 26.8324 17.8181C13.2077 34.1676 8.06375 53.7704 15.2236 62.3623C15.7102 62.9462 17.031 62.4457 18.0737 61.1944C19.1164 59.9432 19.5335 58.4417 19.0469 57.7744C14.8065 52.686 18.4908 36.9203 30.6556 22.3225C36.3557 15.4824 42.7509 10.3106 48.6596 7.89156C53.8731 5.72274 58.0439 5.97299 60.1293 8.47547C60.6159 9.05938 61.9366 8.55888 62.9793 7.30764C64.022 6.0564 64.4391 4.55491 63.9525 3.971Z" fill="#F4991A"/>
</svg>
