<svg width="25" height="24" viewBox="0 0 25 24" fill="none" xmlns="http://www.w3.org/2000/svg">
<path d="M1.64075 24.0008H5.46917V11.6699L0 6.18945V21.8172C0 23.0161 0.739946 24.0008 1.64075 24.0008Z" fill="#4285F4"/>
<path d="M18.5625 24.0008H22.3909C23.2917 24.0008 24.0317 23.0161 24.0317 21.8172V6.18945L18.5625 11.6271" fill="#34A853"/>
<path d="M18.5625 2.20706V11.6694L24.0317 6.23175V3.27745C24.0317 0.580055 21.7153 -0.961315 20.1067 0.665687" fill="#FBBC04"/>
<path d="M5.46875 11.6693V2.20703L12.0318 8.75785L18.5626 2.20703V11.6693L11.9996 18.1773" fill="#EA4335"/>
<path d="M0 3.27694V6.18842L5.46917 11.626V2.20654L3.92493 0.665172C2.31635 -0.919015 0 0.622356 0 3.27694Z" fill="#C5221F"/>
</svg>
