<svg width="120" height="41" viewBox="0 0 120 41" fill="none" xmlns="http://www.w3.org/2000/svg">
<path d="M116.262 24.7257L119.591 26.9615C118.511 28.5649 115.927 31.3156 111.459 31.3156C105.911 31.3156 101.779 26.991 101.779 21.4896C101.779 15.6352 105.955 11.6636 110.992 11.6636C116.058 11.6636 118.54 15.7234 119.343 17.9151L119.781 19.0331L106.728 24.4756C107.721 26.4467 109.269 27.447 111.459 27.447C113.649 27.447 115.167 26.3585 116.262 24.7257ZM106.028 21.1807L114.744 17.5327C114.262 16.3118 112.831 15.4439 111.123 15.4439C108.948 15.4439 105.925 17.3856 106.028 21.1807Z" fill="#FF302F"/>
<path d="M72.4466 21.4896C72.4466 27.1528 68.0665 31.3156 62.6935 31.3156C57.3205 31.3156 52.9404 27.1528 52.9404 21.4896C52.9404 15.797 57.3205 11.6636 62.6935 11.6636C68.0665 11.6636 72.4466 15.7823 72.4466 21.4896ZM68.1687 21.4896C68.1687 17.9593 65.6282 15.5322 62.6789 15.5322C59.7296 15.5322 57.1891 17.9593 57.1891 21.4896C57.1891 24.9905 59.7296 27.447 62.6789 27.447C65.6428 27.447 68.1687 24.9758 68.1687 21.4896Z" fill="#FFBA40"/>
<path d="M88.8571 12.4285H92.9161V29.9035C92.9161 37.1553 88.6673 40.1414 83.6448 40.1414C78.9143 40.1414 76.0672 36.9347 75.0014 34.3311L78.7245 32.7719C79.3961 34.3752 81.0167 36.2728 83.6448 36.2728C86.8715 36.2728 88.8571 34.2576 88.8571 30.4919V29.0798H88.7111C87.7475 30.2565 85.9079 31.3156 83.5718 31.3156C78.6953 31.3156 74.2275 27.0352 74.2275 21.5191C74.2275 15.9735 78.6953 11.6489 83.5718 11.6489C85.8933 11.6489 87.7475 12.6933 88.7111 13.8407H88.8571V12.4285ZM89.1492 21.5191C89.1492 18.0476 86.8569 15.5175 83.9368 15.5175C80.9875 15.5175 78.5055 18.0476 78.5055 21.5191C78.5055 24.9464 80.9875 27.4323 83.9368 27.4323C86.8569 27.447 89.1492 24.9464 89.1492 21.5191Z" fill="#3686F7"/>
<path d="M51.1443 21.4455C51.1443 27.1086 46.7642 31.2715 41.3913 31.2715C36.0183 31.2715 31.6382 27.0939 31.6382 21.4455C31.6382 15.7528 36.0183 11.6047 41.3913 11.6047C46.7642 11.6047 51.1443 15.7528 51.1443 21.4455ZM46.881 21.4455C46.881 17.9151 44.3405 15.4881 41.3913 15.4881C38.442 15.4881 35.9015 17.9151 35.9015 21.4455C35.9015 24.9463 38.442 27.4028 41.3913 27.4028C44.3405 27.4028 46.881 24.9463 46.881 21.4455Z" fill="#FF302F"/>
<path d="M95.4858 1.64636H99.6908V30.4183H95.4858V1.64636Z" fill="#20B15A"/>
<path d="M15.607 27.0056C9.48938 27.0056 4.70044 22.0338 4.70044 15.8705C4.70044 9.70716 9.48938 4.73532 15.607 4.73532C18.9066 4.73532 21.3157 6.04448 23.097 7.72137L26.0317 4.76474C23.5496 2.36708 20.2353 0.543091 15.607 0.543091C7.22632 0.543091 0.174316 7.42718 0.174316 15.8705C0.174316 24.3138 7.22632 31.1979 15.607 31.1979C20.1331 31.1979 23.5496 29.6975 26.2215 26.9027C28.9663 24.1373 29.8132 20.2539 29.8132 17.1061C29.8132 16.1205 29.6964 15.1056 29.565 14.3554H15.607V18.4447H25.5498C25.2578 21.0041 24.4548 22.7546 23.2722 23.946C21.8413 25.4023 19.5783 27.0056 15.607 27.0056Z" fill="#3686F7"/>
</svg>
