<svg width="44" height="44" viewBox="0 0 44 44" fill="none" xmlns="http://www.w3.org/2000/svg">
<rect width="44" height="44" rx="22" fill="#E8EAED"/>
<path d="M22 32C21.7667 32 21.5667 31.9333 21.4 31.8C21.2333 31.6667 21.1083 31.4917 21.025 31.275C20.7083 30.3417 20.3083 29.4667 19.825 28.65C19.3583 27.8333 18.7 26.875 17.85 25.775C17 24.675 16.3083 23.625 15.775 22.625C15.2583 21.625 15 20.4167 15 19C15 17.05 15.675 15.4 17.025 14.05C18.3917 12.6833 20.05 12 22 12C23.95 12 25.6 12.6833 26.95 14.05C28.3167 15.4 29 17.05 29 19C29 20.5167 28.7083 21.7833 28.125 22.8C27.5583 23.8 26.9 24.7917 26.15 25.775C25.25 26.975 24.5667 27.975 24.1 28.775C23.65 29.5583 23.275 30.3917 22.975 31.275C22.8917 31.5083 22.7583 31.6917 22.575 31.825C22.4083 31.9417 22.2167 32 22 32ZM22 28.425C22.2833 27.8583 22.6 27.3 22.95 26.75C23.3167 26.2 23.85 25.4667 24.55 24.55C25.2667 23.6167 25.85 22.7583 26.3 21.975C26.7667 21.175 27 20.1833 27 19C27 17.6167 26.5083 16.4417 25.525 15.475C24.5583 14.4917 23.3833 14 22 14C20.6167 14 19.4333 14.4917 18.45 15.475C17.4833 16.4417 17 17.6167 17 19C17 20.1833 17.225 21.175 17.675 21.975C18.1417 22.7583 18.7333 23.6167 19.45 24.55C20.15 25.4667 20.675 26.2 21.025 26.75C21.3917 27.3 21.7167 27.8583 22 28.425ZM22 21.5C22.7 21.5 23.2917 21.2583 23.775 20.775C24.2583 20.2917 24.5 19.7 24.5 19C24.5 18.3 24.2583 17.7083 23.775 17.225C23.2917 16.7417 22.7 16.5 22 16.5C21.3 16.5 20.7083 16.7417 20.225 17.225C19.7417 17.7083 19.5 18.3 19.5 19C19.5 19.7 19.7417 20.2917 20.225 20.775C20.7083 21.2583 21.3 21.5 22 21.5Z" fill="#667184"/>
</svg>
