<svg width="370" height="341" viewBox="0 0 370 341" fill="none" xmlns="http://www.w3.org/2000/svg">
<path d="M184.665 340.11C286.653 340.11 369.33 294.783 369.33 238.869C369.33 182.955 286.653 137.627 184.665 137.627C82.6773 137.627 0 182.955 0 238.869C0 294.783 82.6773 340.11 184.665 340.11Z" fill="#F0F0F0"/>
<path d="M290.717 273.998C278.608 267.359 278.608 256.597 290.717 249.958C302.827 243.32 322.46 243.32 334.57 249.958C346.679 256.597 346.679 267.359 334.57 273.998C322.46 280.637 302.827 280.637 290.717 273.998Z" fill="#E0E0E0"/>
<path d="M44.4243 274.921L12.5717 257.46C10.7769 256.478 10.7769 254.878 12.5717 253.895L197.848 152.319C198.855 151.835 199.968 151.582 201.097 151.582C202.226 151.582 203.339 151.835 204.346 152.319L236.206 169.779C238.001 170.762 238.001 172.362 236.206 173.344L50.9296 274.921C49.9213 275.405 48.8071 275.658 47.677 275.658C46.5469 275.658 45.4326 275.405 44.4243 274.921Z" fill="#E0E0E0"/>
<path d="M158.918 243.796L186.303 228.762C189.125 227.214 190.535 225.189 190.535 223.157C190.535 221.126 190.535 219.54 190.535 219.54L162.131 204.328C161.338 203.84 160.677 203.182 160.203 202.406C159.729 201.63 159.455 200.758 159.404 199.862V167.792L111.594 194.035V226.09C111.649 226.985 111.924 227.855 112.398 228.631C112.872 229.406 113.53 230.065 114.321 230.555L138.493 243.773C144.12 246.892 153.275 246.892 158.918 243.796Z" fill="#F58634"/>
<g opacity="0.6">
<path d="M158.918 243.796L186.303 228.762C189.125 227.214 190.535 225.189 190.535 223.157C190.535 221.126 190.535 219.54 190.535 219.54L162.131 204.328C161.338 203.84 160.677 203.182 160.203 202.406C159.729 201.63 159.455 200.758 159.404 199.862V167.792L111.594 194.035V226.09C111.649 226.985 111.924 227.855 112.398 228.631C112.872 229.406 113.53 230.065 114.321 230.555L138.493 243.773C144.12 246.892 153.275 246.892 158.918 243.796Z" fill="black"/>
</g>
<path opacity="0.3" d="M123.06 231.768V235.371L114.298 230.57C113.507 230.081 112.849 229.422 112.376 228.646C111.904 227.87 111.63 226.999 111.578 226.105V194.035L120.686 189.041C120.874 191.236 121.077 193.506 121.273 195.739L114.87 199.237V224.281C114.921 225.177 115.194 226.049 115.668 226.825C116.143 227.601 116.804 228.26 117.598 228.747L123.06 231.768Z" fill="black"/>
<path d="M114.87 224.289C114.924 225.184 115.199 226.055 115.673 226.831C116.146 227.606 116.806 228.265 117.597 228.754L138.461 240.171C144.105 243.26 153.259 243.267 158.91 240.171L186.342 225.137C191.993 222.041 191.993 217.025 186.342 213.929L165.462 202.512C164.673 202.022 164.015 201.362 163.543 200.587C163.07 199.811 162.796 198.941 162.743 198.046V172.995L114.933 199.237L114.87 224.289Z" fill="#F58634"/>
<path opacity="0.3" d="M114.87 224.289C114.924 225.184 115.199 226.055 115.673 226.831C116.146 227.606 116.806 228.265 117.597 228.754L138.461 240.171C144.105 243.26 153.259 243.267 158.91 240.171L186.342 225.137C191.993 222.041 191.993 217.025 186.342 213.929L165.462 202.512C164.673 202.022 164.015 201.362 163.543 200.587C163.07 199.811 162.796 198.941 162.743 198.046V172.995L114.933 199.237L114.87 224.289Z" fill="black"/>
<path opacity="0.5" d="M170.988 205.571L165.431 202.527C164.641 202.036 163.984 201.377 163.511 200.601C163.039 199.826 162.765 198.956 162.711 198.061V172.995L114.901 199.237V224.289C114.955 225.184 115.23 226.055 115.704 226.831C116.178 227.606 116.837 228.265 117.629 228.754L123.115 231.731L170.988 205.571Z" fill="black"/>
<path d="M190.543 219.548V223.165C190.543 225.197 189.125 227.214 186.311 228.769L158.879 243.796C155.877 245.317 152.524 246.108 149.121 246.095V242.493C152.524 242.505 155.877 241.715 158.879 240.193L186.311 225.152C189.125 223.611 190.543 221.58 190.543 219.548Z" fill="#F58634"/>
<path opacity="0.5" d="M190.543 219.548V223.165C190.543 225.197 189.125 227.214 186.311 228.769L158.879 243.796C155.877 245.317 152.524 246.108 149.121 246.095V242.493C152.524 242.505 155.877 241.715 158.879 240.193L186.311 225.152C189.125 223.611 190.543 221.58 190.543 219.548Z" fill="black"/>
<path d="M38.06 255.421C39.0936 255.895 40.23 256.132 41.3776 256.113C42.5253 256.093 43.6521 255.818 44.6672 255.309L229.638 153.904C230.63 153.29 231.455 152.463 232.048 151.489C232.64 150.515 232.982 149.423 233.047 148.3V6.20663C233.012 5.11433 232.705 4.04544 232.152 3.08706C231.599 2.12868 230.816 1.30792 229.865 0.691684C228.833 0.217113 227.697 -0.0194421 226.55 0.00124951C225.404 0.0219412 224.278 0.299295 223.266 0.810765L38.2952 102.246C37.3068 102.864 36.4863 103.695 35.9006 104.671C35.3149 105.648 34.9806 106.742 34.9249 107.865V249.936C34.9599 251.019 35.2617 252.08 35.8061 253.032C36.3506 253.985 37.1225 254.803 38.06 255.421Z" fill="#F58634"/>
<path d="M44.6908 255.302L229.661 153.897C230.655 153.284 231.481 152.457 232.074 151.483C232.666 150.509 233.008 149.416 233.071 148.293V6.20652C233.071 4.14493 231.543 3.30392 229.661 4.33844L44.6908 105.743C43.6985 106.357 42.8727 107.185 42.2803 108.158C41.6879 109.132 41.3457 110.225 41.2814 111.348V253.434C41.2814 255.495 42.8097 256.336 44.6908 255.302Z" fill="#F58634"/>
<path opacity="0.5" d="M44.6908 255.302L229.661 153.897C230.655 153.284 231.481 152.457 232.074 151.483C232.666 150.509 233.008 149.416 233.071 148.293V6.20652C233.071 4.14493 231.543 3.30392 229.661 4.33844L44.6908 105.743C43.6985 106.357 42.8727 107.185 42.2803 108.158C41.6879 109.132 41.3457 110.225 41.2814 111.348V253.434C41.2814 255.495 42.8097 256.336 44.6908 255.302Z" fill="black"/>
<path d="M44.1891 258.993C43.2192 259.395 42.1689 259.593 41.1108 259.572C40.0527 259.552 39.0119 259.314 38.06 258.874C37.1204 258.255 36.3472 257.434 35.8027 256.479C35.2581 255.523 34.9575 254.46 34.9249 253.374V240.439L41.3127 243.952V256.887C41.2735 258.77 42.5354 259.626 44.1891 258.993Z" fill="#F58634"/>
<path opacity="0.5" d="M44.1891 258.993C43.2192 259.395 42.1689 259.593 41.1108 259.572C40.0527 259.552 39.0119 259.314 38.06 258.874C37.1204 258.255 36.3472 257.434 35.8027 256.479C35.2581 255.523 34.9575 254.46 34.9249 253.374V240.439L41.3127 243.952V256.887C41.2735 258.77 42.5354 259.626 44.1891 258.993Z" fill="black"/>
<path d="M41.2736 243.952V256.887C41.2736 258.949 42.8411 259.782 44.683 258.755L229.654 157.35C230.641 156.739 231.464 155.916 232.056 154.948C232.649 153.98 232.993 152.893 233.063 151.776V138.781L41.2736 243.952Z" fill="#F58634"/>
<path opacity="0.3" d="M41.2814 243.922V256.887C41.2814 258.949 42.8489 259.782 44.6908 258.755L229.661 157.35C230.648 156.738 231.469 155.915 232.06 154.947C232.651 153.979 232.994 152.893 233.063 151.776V138.781L41.2814 243.922Z" fill="black"/>
<path d="M47.6691 227.69V113.365C47.7056 112.691 47.9092 112.035 48.2633 111.451C48.6174 110.866 49.1121 110.369 49.7069 110.001L224.598 14.0883C225.727 13.4705 226.644 13.9692 226.644 15.2047V129.589C226.606 130.264 226.401 130.92 226.045 131.504C225.69 132.089 225.194 132.585 224.598 132.954L49.7147 228.844C48.5861 229.461 47.6691 228.955 47.6691 227.69Z" fill="#F58634"/>
<path d="M47.6691 227.69V113.365C47.7056 112.691 47.9092 112.035 48.2633 111.451C48.6174 110.866 49.1121 110.369 49.7069 110.001L224.598 14.0883C225.727 13.4705 226.644 13.9692 226.644 15.2047V129.589C226.606 130.264 226.401 130.92 226.045 131.504C225.69 132.089 225.194 132.585 224.598 132.954L49.7147 228.844C48.5861 229.461 47.6691 228.955 47.6691 227.69Z" fill="#263238"/>
<path d="M137.168 195.486C136.237 196.061 135.462 196.837 134.907 197.75C134.351 198.663 134.03 199.687 133.97 200.741C133.97 202.676 135.405 203.464 137.168 202.497C138.1 201.921 138.876 201.145 139.432 200.23C139.987 199.316 140.307 198.289 140.366 197.235C140.366 195.3 138.932 194.519 137.168 195.486Z" fill="#F58634"/>
<path opacity="0.7" d="M42.2846 108.147C41.6771 109.117 41.3299 110.213 41.2735 111.34V243.952L34.9249 240.439V107.865C34.9661 106.734 35.3114 105.632 35.9282 104.664L42.2846 108.147Z" fill="black"/>
<path opacity="0.3" d="M233.032 5.67073C232.789 4.0036 231.37 3.43797 229.654 4.33852L44.683 105.743C43.6801 106.339 42.8523 107.166 42.2768 108.147L35.8812 104.642C36.4606 103.661 37.2908 102.834 38.2952 102.238L223.266 0.84051C224.28 0.328969 225.407 0.0516022 226.555 0.0309123C227.703 0.0102225 228.839 0.246793 229.873 0.721429C230.742 1.28361 231.474 2.0164 232.019 2.87026C232.564 3.72412 232.909 4.67914 233.032 5.67073Z" fill="black"/>
<path d="M243.009 23.1605C242.734 23.0295 242.427 22.9721 242.121 22.9944C241.814 23.0167 241.52 23.1179 241.269 23.287L66.7383 119.028C66.0496 119.461 65.4779 120.041 65.0694 120.723C64.6609 121.404 64.4271 122.167 64.387 122.95V236.576C64.3625 236.96 64.4428 237.343 64.6199 237.688C64.797 238.034 65.065 238.33 65.3981 238.548C65.7821 238.749 67.8356 239.881 68.4469 240.193C68.6632 240.298 68.9049 240.346 69.1473 240.333C69.3896 240.32 69.624 240.246 69.8264 240.119L244.318 144.378C245.007 143.945 245.578 143.364 245.987 142.683C246.395 142.002 246.629 141.238 246.669 140.455V26.2417C246.704 25.9531 246.654 25.6609 246.524 25.398C246.394 25.135 246.189 24.9117 245.933 24.7532C245.541 24.5076 243.448 23.4061 243.009 23.1605Z" fill="#F58634"/>
<path d="M69.7872 120.636L244.326 24.9317C245.643 24.1875 246.677 24.7978 246.677 26.2416V140.455C246.637 141.238 246.403 142.002 245.995 142.683C245.586 143.364 245.015 143.945 244.326 144.378L69.7872 240.119C68.4705 240.863 67.4359 239.665 67.4359 238.221V124.558C67.4773 123.775 67.7116 123.012 68.12 122.331C68.5284 121.65 69.0994 121.069 69.7872 120.636Z" fill="#FAFAFA"/>
<path d="M245.392 25.3635C245.854 25.3635 245.925 25.9143 245.925 26.2417V140.455C245.883 141.111 245.68 141.749 245.333 142.317C244.986 142.885 244.504 143.369 243.926 143.73L69.411 239.471C69.2939 239.543 69.1586 239.585 69.0191 239.59C68.5802 239.59 68.2354 238.95 68.2354 238.221V124.558C68.2732 123.902 68.4696 123.264 68.8095 122.692C69.1493 122.12 69.6233 121.631 70.1948 121.261L244.718 25.5719C244.92 25.4482 245.152 25.3764 245.392 25.3635ZM245.392 24.6193C245.014 24.6345 244.647 24.7422 244.326 24.9318L69.7872 120.636C69.0994 121.069 68.5284 121.65 68.12 122.331C67.7116 123.012 67.4773 123.775 67.4359 124.558V238.221C67.4359 239.367 68.11 240.335 69.0035 240.335C69.2802 240.33 69.5506 240.255 69.7872 240.119L244.318 144.378C245.007 143.945 245.578 143.365 245.987 142.683C246.395 142.002 246.629 141.239 246.669 140.455V26.2417C246.669 25.2147 246.136 24.6193 245.353 24.6193H245.392Z" fill="#E0E0E0"/>
<path d="M65.3511 238.549C65.6098 238.675 67.4673 239.68 68.2824 240.126C67.9897 239.896 67.7579 239.603 67.6055 239.273C67.4531 238.942 67.3843 238.582 67.4046 238.221V131.978L64.3479 130.281V236.576C64.3226 236.959 64.4016 237.342 64.5773 237.687C64.753 238.033 65.0195 238.329 65.3511 238.549Z" fill="#F0F0F0"/>
<path d="M246.709 26.2193C246.709 24.7904 245.635 24.2098 244.357 24.9318L69.7872 120.636C69.0994 121.069 68.5284 121.65 68.12 122.331C67.7116 123.012 67.4773 123.775 67.4359 124.558V132.001L246.709 33.6619V26.2193Z" fill="#F58634"/>
<g opacity="0.4">
<path d="M244.326 24.932L69.7873 120.629C69.0868 121.048 68.5097 121.629 68.11 122.318L65.0768 120.643C65.4758 119.979 66.048 119.423 66.7384 119.028L241.269 23.2872C241.519 23.1169 241.813 23.0145 242.12 22.9909C242.426 22.9673 242.734 23.0234 243.009 23.1533C243.432 23.4063 245.415 24.4706 245.925 24.7311C245.661 24.6383 245.378 24.6081 245.099 24.6431C244.82 24.6781 244.555 24.7773 244.326 24.932Z" fill="white"/>
</g>
<path opacity="0.15" d="M64.3479 130.289V122.913C64.3801 122.109 64.6312 121.327 65.0768 120.643L68.1179 122.31C67.6787 122.983 67.4327 123.752 67.4046 124.543V131.986L64.3479 130.289Z" fill="black"/>
<path d="M209.902 111.898L105.371 169.206C104.862 169.519 104.439 169.942 104.135 170.44C103.831 170.938 103.656 171.497 103.623 172.071V200.532C103.656 201.106 103.831 201.665 104.135 202.163C104.439 202.661 104.862 203.084 105.371 203.397L108.419 205.064C108.961 205.325 109.56 205.46 110.167 205.46C110.774 205.46 111.373 205.325 111.915 205.064L216.431 147.757C216.94 147.442 217.363 147.018 217.667 146.518C217.97 146.019 218.146 145.459 218.179 144.884V116.416C218.146 115.841 217.97 115.282 217.667 114.784C217.363 114.286 216.94 113.864 216.431 113.551L213.375 111.883C212.835 111.627 212.24 111.495 211.637 111.498C211.034 111.5 210.439 111.638 209.902 111.898Z" fill="#F58634"/>
<path opacity="0.5" d="M218.179 116.163C218.054 115.307 217.325 114.994 216.447 115.478L111.915 172.786C111.4 173.09 110.976 173.516 110.685 174.021L104.14 170.434C104.433 169.936 104.854 169.516 105.363 169.213L209.902 111.906C210.443 111.645 211.04 111.509 211.646 111.509C212.252 111.509 212.85 111.645 213.39 111.906L216.447 113.573C216.913 113.863 217.309 114.244 217.607 114.69C217.906 115.137 218.101 115.639 218.179 116.163Z" fill="white"/>
<path d="M111.617 205.206C111.105 205.397 110.557 205.484 110.007 205.461C109.458 205.438 108.919 205.305 108.427 205.072L105.371 203.405C104.863 203.091 104.44 202.668 104.137 202.17C103.833 201.672 103.657 201.114 103.623 200.539V172.079C103.646 171.498 103.824 170.932 104.14 170.434L110.684 174.021C110.366 174.513 110.188 175.075 110.167 175.651V204.119C110.167 205.064 110.794 205.503 111.617 205.206Z" fill="#263238"/>
<path d="M111.915 172.786L216.447 115.478C217.411 114.95 218.195 115.374 218.195 116.431V144.899C218.162 145.474 217.986 146.034 217.682 146.533C217.379 147.032 216.956 147.457 216.447 147.771L111.931 205.079C110.967 205.608 110.183 205.176 110.183 204.119V175.659C110.214 175.084 110.388 174.525 110.688 174.026C110.989 173.527 111.41 173.102 111.915 172.786Z" fill="#F58634"/>
<path d="M182.188 127.096L105.378 169.213C104.87 169.517 104.449 169.936 104.156 170.434L110.7 174.021C110.991 173.516 111.415 173.09 111.931 172.786L188.741 130.676L182.188 127.096Z" fill="#455A64"/>
<path d="M188.725 130.676L111.915 172.786C111.407 173.101 110.983 173.525 110.68 174.024C110.376 174.523 110.2 175.083 110.167 175.659V204.112C110.167 205.168 110.951 205.6 111.915 205.072L188.725 162.962V130.676Z" fill="#37474F"/>
<path d="M129.628 169.318L169.264 147.593C170.902 146.692 172.234 147.332 172.234 149.022C172.161 149.971 171.853 150.89 171.336 151.704C170.818 152.519 170.106 153.206 169.256 153.711L129.628 175.443C127.99 176.343 126.65 175.703 126.65 174.014C126.724 173.064 127.032 172.144 127.549 171.329C128.067 170.513 128.779 169.824 129.628 169.318Z" fill="#F58634"/>
<path d="M137.748 176.515C137.756 176.507 137.765 176.5 137.775 176.496C137.785 176.492 137.796 176.489 137.807 176.489C137.818 176.489 137.829 176.492 137.839 176.496C137.849 176.5 137.858 176.507 137.866 176.515C137.901 176.565 137.917 176.625 137.913 176.686V180.921C137.913 181.33 137.877 181.738 137.803 182.141C137.738 182.509 137.628 182.869 137.474 183.213C137.333 183.528 137.149 183.823 136.925 184.091C136.705 184.34 136.439 184.549 136.142 184.709C135.908 184.853 135.636 184.931 135.358 184.932C135.251 184.924 135.148 184.896 135.053 184.848C134.959 184.801 134.876 184.736 134.809 184.657C134.637 184.438 134.524 184.182 134.48 183.912C134.405 183.552 134.371 183.186 134.378 182.818V178.576C134.378 178.502 134.394 178.428 134.425 178.36C134.444 178.299 134.486 178.246 134.543 178.211L135.036 177.936C135.052 177.922 135.073 177.914 135.095 177.914C135.117 177.914 135.138 177.922 135.154 177.936C135.19 177.986 135.207 178.047 135.201 178.107V182.29C135.195 182.52 135.219 182.75 135.272 182.975C135.293 183.118 135.359 183.253 135.46 183.362C135.495 183.402 135.539 183.433 135.59 183.454C135.64 183.475 135.695 183.484 135.75 183.481C135.884 183.472 136.013 183.431 136.126 183.362C136.265 183.283 136.392 183.185 136.502 183.071C136.624 182.938 136.725 182.787 136.8 182.625C136.888 182.434 136.954 182.234 136.996 182.03C137.042 181.784 137.063 181.535 137.059 181.285V177.095C137.061 177.02 137.08 176.947 137.113 176.879C137.133 176.818 137.174 176.765 137.231 176.73L137.748 176.515Z" fill="#FAFAFA"/>
<path d="M140.821 180.519C140.825 180.464 140.811 180.409 140.781 180.362C140.763 180.343 140.74 180.328 140.714 180.319C140.688 180.31 140.66 180.307 140.633 180.31C140.536 180.298 140.439 180.298 140.343 180.31L139.888 180.392C139.741 180.427 139.588 180.427 139.441 180.392C139.326 180.357 139.227 180.286 139.159 180.191C139.082 180.07 139.032 179.936 139.01 179.797C138.934 179.398 138.934 178.99 139.01 178.591C139.069 178.362 139.153 178.14 139.261 177.929C139.368 177.717 139.5 177.518 139.653 177.333C139.801 177.158 139.982 177.009 140.186 176.894C140.351 176.799 140.535 176.738 140.727 176.715C140.866 176.702 141.006 176.73 141.126 176.797C141.241 176.864 141.332 176.963 141.385 177.08C141.448 177.219 141.483 177.368 141.487 177.519C141.495 177.594 141.479 177.67 141.44 177.735C141.421 177.796 141.379 177.849 141.322 177.884L140.852 178.144C140.831 178.156 140.806 178.162 140.781 178.162C140.757 178.162 140.732 178.156 140.711 178.144L140.609 178.07C140.569 178.04 140.519 178.022 140.468 178.018C140.367 178.029 140.271 178.062 140.186 178.115C140.063 178.185 139.954 178.276 139.864 178.383C139.77 178.5 139.72 178.644 139.723 178.792C139.712 178.849 139.712 178.907 139.723 178.963C139.738 178.984 139.758 179.002 139.781 179.015C139.804 179.027 139.83 179.035 139.857 179.038C139.942 179.051 140.03 179.051 140.115 179.038L140.554 178.963C140.923 178.896 141.173 178.963 141.338 179.157C141.511 179.432 141.59 179.752 141.565 180.072C141.563 180.293 141.532 180.513 141.471 180.727C141.409 180.959 141.32 181.184 141.205 181.397C141.09 181.617 140.945 181.822 140.774 182.007C140.611 182.188 140.418 182.342 140.201 182.461C140.029 182.566 139.833 182.63 139.629 182.647C139.482 182.652 139.337 182.613 139.214 182.536C139.093 182.457 139 182.345 138.947 182.216C138.884 182.074 138.852 181.922 138.853 181.769C138.846 181.692 138.862 181.614 138.9 181.546C138.92 181.484 138.961 181.432 139.018 181.397L139.488 181.136C139.551 181.136 139.598 181.099 139.629 181.136L139.731 181.241C139.752 181.263 139.777 181.281 139.806 181.294C139.834 181.306 139.865 181.314 139.896 181.315C140.006 181.316 140.114 181.282 140.201 181.218C140.343 181.142 140.47 181.044 140.578 180.928C140.631 180.867 140.676 180.799 140.711 180.727C140.766 180.668 140.804 180.596 140.821 180.519Z" fill="#FAFAFA"/>
<path d="M142.42 178.502C142.418 178.115 142.452 177.729 142.521 177.348C142.587 176.99 142.689 176.638 142.827 176.299C142.942 175.995 143.101 175.707 143.297 175.443C143.462 175.216 143.676 175.026 143.924 174.885C144.106 174.769 144.328 174.723 144.544 174.758C144.735 174.8 144.903 174.909 145.014 175.063C145.161 175.265 145.265 175.493 145.32 175.733C145.395 176.046 145.432 176.365 145.429 176.686V177.147C145.432 177.225 145.413 177.302 145.374 177.37C145.355 177.432 145.313 177.485 145.257 177.519L143.219 178.643C143.214 178.774 143.233 178.905 143.274 179.03C143.304 179.114 143.358 179.189 143.431 179.246C143.495 179.294 143.576 179.318 143.658 179.313C143.753 179.302 143.844 179.272 143.924 179.224C144.043 179.163 144.149 179.082 144.238 178.985C144.318 178.9 144.387 178.805 144.442 178.703C144.475 178.644 144.512 178.587 144.551 178.531C144.585 178.494 144.625 178.461 144.669 178.435L145.155 178.167C145.172 178.154 145.192 178.147 145.214 178.147C145.235 178.147 145.256 178.154 145.272 178.167C145.293 178.19 145.308 178.218 145.316 178.247C145.324 178.277 145.325 178.308 145.32 178.338C145.311 178.483 145.279 178.626 145.225 178.762C145.158 178.969 145.069 179.168 144.959 179.358C144.836 179.576 144.689 179.78 144.52 179.968C144.351 180.16 144.15 180.323 143.924 180.452C143.739 180.567 143.517 180.617 143.297 180.593C143.105 180.549 142.937 180.437 142.827 180.28C142.673 180.055 142.569 179.802 142.521 179.536C142.45 179.196 142.416 178.849 142.42 178.502ZM143.924 176.128C143.804 176.189 143.699 176.276 143.619 176.381C143.532 176.485 143.461 176.6 143.407 176.723C143.352 176.846 143.308 176.973 143.274 177.103C143.246 177.22 143.228 177.34 143.219 177.46L144.598 176.715C144.59 176.613 144.575 176.511 144.551 176.41C144.539 176.32 144.501 176.235 144.442 176.165C144.418 176.133 144.388 176.105 144.353 176.085C144.318 176.064 144.279 176.051 144.238 176.046C144.126 176.037 144.015 176.066 143.924 176.128Z" fill="#FAFAFA"/>
<path d="M147.89 174.051C147.653 174.18 147.466 174.378 147.357 174.617C147.235 174.931 147.179 175.265 147.193 175.599V178.286C147.194 178.363 147.178 178.439 147.146 178.509C147.127 178.571 147.085 178.623 147.028 178.658L146.566 178.911C146.558 178.919 146.549 178.925 146.539 178.93C146.529 178.934 146.518 178.936 146.507 178.936C146.496 178.936 146.485 178.934 146.475 178.93C146.465 178.925 146.456 178.919 146.448 178.911C146.413 178.86 146.397 178.8 146.401 178.74V173.925C146.402 173.848 146.418 173.772 146.448 173.701C146.47 173.641 146.511 173.589 146.566 173.552L147.028 173.299C147.044 173.285 147.065 173.277 147.087 173.277C147.109 173.277 147.13 173.285 147.146 173.299C147.182 173.347 147.199 173.405 147.193 173.463V173.701C147.286 173.502 147.402 173.312 147.538 173.136C147.662 172.973 147.822 172.838 148.008 172.741L148.29 172.585C148.305 172.571 148.324 172.564 148.345 172.564C148.365 172.564 148.385 172.571 148.4 172.585C148.438 172.635 148.457 172.695 148.455 172.756V173.433C148.453 173.511 148.435 173.587 148.4 173.657C148.38 173.716 148.342 173.768 148.29 173.805L147.89 174.051Z" fill="#FAFAFA"/>
<path d="M153.737 173.694C153.745 173.686 153.754 173.679 153.764 173.675C153.774 173.671 153.785 173.668 153.796 173.668C153.807 173.668 153.818 173.671 153.828 173.675C153.838 173.679 153.847 173.686 153.855 173.694C153.89 173.744 153.906 173.804 153.902 173.865V174.609C153.901 174.686 153.885 174.762 153.855 174.832C153.828 174.888 153.788 174.936 153.737 174.974L151.057 176.462C151.041 176.476 151.02 176.484 150.998 176.484C150.976 176.484 150.955 176.476 150.939 176.462C150.904 176.415 150.887 176.357 150.892 176.299V169.6C150.893 169.524 150.908 169.448 150.939 169.377C150.961 169.319 151.002 169.269 151.057 169.236L151.55 168.96C151.566 168.946 151.587 168.938 151.609 168.938C151.631 168.938 151.652 168.946 151.668 168.96C151.703 169.008 151.72 169.066 151.715 169.124V174.788L153.737 173.694Z" fill="#FAFAFA"/>
<path d="M156.143 168.186C156.32 168.07 156.533 168.015 156.747 168.03C156.93 168.044 157.101 168.124 157.225 168.253C157.371 168.413 157.478 168.601 157.538 168.804C157.622 169.067 157.67 169.34 157.68 169.615C157.68 169.675 157.68 169.757 157.68 169.853V170.426C157.68 170.516 157.68 170.598 157.68 170.665C157.664 170.988 157.617 171.31 157.538 171.625C157.466 171.932 157.361 172.231 157.225 172.518C157.101 172.785 156.94 173.035 156.747 173.262C156.582 173.468 156.377 173.642 156.143 173.776C155.962 173.888 155.748 173.942 155.532 173.932C155.351 173.917 155.183 173.837 155.062 173.709C154.911 173.555 154.804 173.368 154.748 173.165C154.665 172.902 154.617 172.629 154.607 172.354C154.607 172.295 154.607 172.22 154.607 172.123V171.55C154.607 171.454 154.607 171.372 154.607 171.312C154.616 170.986 154.661 170.662 154.74 170.345C154.817 170.035 154.924 169.734 155.062 169.444C155.186 169.179 155.344 168.929 155.532 168.7C155.698 168.492 155.906 168.318 156.143 168.186ZM156.88 170.106C156.88 169.942 156.851 169.778 156.794 169.623C156.765 169.528 156.704 169.444 156.621 169.385C156.555 169.342 156.474 169.323 156.394 169.332C156.305 169.348 156.219 169.381 156.143 169.429C156.051 169.477 155.967 169.537 155.893 169.608C155.803 169.697 155.726 169.797 155.665 169.905C155.587 170.041 155.528 170.186 155.493 170.337C155.441 170.527 155.41 170.722 155.399 170.918C155.399 170.977 155.399 171.044 155.399 171.126V171.654C155.399 171.736 155.399 171.803 155.399 171.848C155.406 172.013 155.438 172.175 155.493 172.332C155.521 172.427 155.582 172.51 155.665 172.57C155.698 172.592 155.735 172.607 155.774 172.615C155.813 172.622 155.853 172.622 155.893 172.615C155.981 172.6 156.067 172.57 156.143 172.525C156.234 172.475 156.318 172.416 156.394 172.347C156.482 172.256 156.558 172.156 156.621 172.049C156.697 171.912 156.755 171.767 156.794 171.617C156.845 171.427 156.874 171.233 156.88 171.037C156.885 170.967 156.885 170.898 156.88 170.828V170.307C156.885 170.24 156.885 170.173 156.88 170.106Z" fill="#FAFAFA"/>
<path d="M160.078 172.54C160.178 172.482 160.268 172.409 160.345 172.325C160.439 172.22 160.52 172.105 160.587 171.982C160.665 171.833 160.726 171.675 160.768 171.513C160.816 171.331 160.84 171.143 160.838 170.955V170.576C160.838 170.65 160.76 170.739 160.705 170.843C160.651 170.952 160.588 171.057 160.517 171.156C160.435 171.261 160.346 171.36 160.25 171.454C160.152 171.552 160.038 171.635 159.913 171.699C159.833 171.752 159.742 171.788 159.646 171.806C159.551 171.824 159.452 171.823 159.357 171.804C159.183 171.752 159.033 171.644 158.934 171.498C158.806 171.306 158.713 171.095 158.659 170.873C158.593 170.592 158.556 170.305 158.55 170.017C158.55 169.921 158.55 169.802 158.55 169.66C158.55 169.519 158.55 169.4 158.55 169.295C158.559 168.968 158.596 168.642 158.659 168.32C158.724 168.004 158.816 167.693 158.934 167.39C159.045 167.128 159.187 166.878 159.357 166.646C159.501 166.441 159.691 166.268 159.913 166.14C160.018 166.08 160.132 166.038 160.25 166.013C160.339 165.998 160.429 165.998 160.517 166.013C160.586 166.032 160.651 166.065 160.705 166.11C160.755 166.146 160.8 166.189 160.838 166.237V165.998C160.839 165.922 160.855 165.846 160.885 165.775C160.907 165.717 160.949 165.667 161.003 165.634L161.465 165.373C161.481 165.359 161.502 165.351 161.524 165.351C161.546 165.351 161.567 165.359 161.583 165.373C161.621 165.423 161.64 165.483 161.638 165.544V170.382C161.659 171.107 161.517 171.827 161.222 172.496C160.991 173.022 160.59 173.464 160.078 173.761C159.903 173.864 159.704 173.923 159.498 173.932C159.335 173.941 159.174 173.902 159.036 173.82C158.903 173.726 158.796 173.604 158.722 173.463C158.646 173.294 158.603 173.112 158.597 172.927C158.589 172.85 158.606 172.773 158.644 172.704C158.663 172.643 158.705 172.59 158.761 172.555L159.177 172.332C159.186 172.322 159.198 172.315 159.211 172.309C159.223 172.304 159.237 172.301 159.251 172.301C159.265 172.301 159.279 172.304 159.292 172.309C159.305 172.315 159.316 172.322 159.326 172.332C159.364 172.371 159.398 172.413 159.428 172.459C159.475 172.538 159.554 172.597 159.647 172.622C159.741 172.689 159.882 172.615 160.078 172.54ZM159.341 168.931C159.341 169.129 159.341 169.323 159.341 169.511C159.319 169.808 159.408 170.104 159.592 170.345C159.662 170.402 159.751 170.433 159.843 170.433C159.935 170.433 160.024 170.402 160.094 170.345C160.321 170.204 160.499 170.002 160.603 169.764C160.746 169.454 160.826 169.12 160.838 168.782C160.838 168.67 160.838 168.536 160.838 168.38C160.838 168.224 160.838 168.09 160.838 167.993C160.854 167.726 160.771 167.463 160.603 167.249C160.534 167.188 160.443 167.154 160.348 167.154C160.254 167.154 160.163 167.188 160.094 167.249C159.871 167.389 159.696 167.588 159.592 167.822C159.431 168.172 159.346 168.549 159.341 168.931Z" fill="#FAFAFA"/>
<path d="M163.464 162.322C163.479 162.309 163.499 162.303 163.519 162.303C163.539 162.303 163.558 162.309 163.574 162.322C163.615 162.37 163.634 162.431 163.628 162.493V163.304C163.629 163.381 163.61 163.458 163.574 163.527C163.552 163.583 163.514 163.632 163.464 163.669L162.939 163.959C162.931 163.967 162.922 163.973 162.912 163.978C162.902 163.982 162.891 163.984 162.88 163.984C162.869 163.984 162.858 163.982 162.848 163.978C162.838 163.973 162.829 163.967 162.821 163.959C162.801 163.937 162.785 163.911 162.776 163.882C162.766 163.854 162.763 163.825 162.766 163.795V162.984C162.766 162.906 162.785 162.83 162.821 162.761C162.843 162.703 162.884 162.653 162.939 162.619L163.464 162.322ZM163.597 169.31C163.597 169.384 163.581 169.458 163.55 169.526C163.525 169.584 163.485 169.636 163.433 169.675L162.962 169.928C162.956 169.936 162.947 169.942 162.938 169.946C162.928 169.951 162.918 169.953 162.907 169.953C162.897 169.953 162.886 169.951 162.877 169.946C162.867 169.942 162.859 169.936 162.853 169.928C162.811 169.88 162.792 169.818 162.798 169.757V164.941C162.797 164.864 162.816 164.787 162.853 164.718C162.875 164.66 162.913 164.609 162.962 164.569L163.433 164.316C163.448 164.302 163.469 164.294 163.491 164.294C163.513 164.294 163.534 164.302 163.55 164.316C163.585 164.364 163.602 164.422 163.597 164.48V169.31Z" fill="#FAFAFA"/>
<path d="M167.72 167.04C167.719 167.117 167.703 167.193 167.673 167.263C167.651 167.321 167.61 167.371 167.555 167.405L167.085 167.665C167.07 167.679 167.051 167.687 167.03 167.687C167.01 167.687 166.99 167.679 166.975 167.665C166.934 167.617 166.915 167.556 166.92 167.494V164.874C166.944 164.565 166.885 164.255 166.748 163.974C166.638 163.788 166.466 163.758 166.223 163.892C165.98 164.047 165.801 164.275 165.713 164.539C165.583 164.891 165.519 165.261 165.525 165.633V168.261C165.525 168.337 165.509 168.413 165.478 168.484C165.459 168.545 165.417 168.598 165.361 168.633L164.898 168.886C164.891 168.894 164.882 168.9 164.872 168.905C164.862 168.909 164.851 168.911 164.839 168.911C164.828 168.911 164.817 168.909 164.807 168.905C164.797 168.9 164.788 168.894 164.781 168.886C164.744 168.839 164.728 168.78 164.734 168.722V163.907C164.733 163.83 164.749 163.754 164.781 163.684C164.8 163.622 164.842 163.569 164.898 163.535L165.361 163.282C165.368 163.274 165.377 163.267 165.387 163.263C165.397 163.259 165.408 163.256 165.419 163.256C165.431 163.256 165.442 163.259 165.452 163.263C165.462 163.267 165.471 163.274 165.478 163.282C165.513 163.332 165.53 163.392 165.525 163.453V163.684C165.628 163.457 165.754 163.24 165.901 163.036C166.03 162.848 166.205 162.692 166.411 162.582C166.589 162.458 166.811 162.405 167.03 162.433C167.117 162.454 167.198 162.492 167.268 162.544C167.338 162.597 167.396 162.663 167.438 162.738C167.551 162.94 167.626 163.159 167.657 163.386C167.699 163.682 167.72 163.98 167.72 164.279V167.04Z" fill="#FAFAFA"/>
<path d="M207.253 145.375L199.643 149.543L200.826 139.406C199.909 138.944 199.329 137.821 199.329 136.206C199.329 133.325 201.179 129.984 203.452 128.763C205.725 127.542 207.567 128.837 207.567 131.74C207.52 133.448 207.007 135.115 206.078 136.578L207.253 145.375Z" fill="#455A64"/>
<path d="M207.261 145.375L200.56 141.706L199.643 149.55L207.261 145.375Z" fill="#37474F"/>
<path d="M203.436 128.741C201.779 129.804 200.543 131.363 199.925 133.169L206.062 136.533C206.991 135.07 207.504 133.403 207.551 131.696C207.567 128.815 205.725 127.498 203.436 128.741Z" fill="#37474F"/>
<path d="M166.442 94.9887C163.832 93.5597 160.235 93.7607 156.253 95.9413C148.306 100.303 141.863 110.893 141.863 119.609C141.863 123.985 143.493 127.051 146.111 128.465L151.182 131.264C153.784 132.693 157.382 132.484 161.371 130.304C169.319 125.95 175.761 115.352 175.761 106.636C175.761 102.282 174.147 99.1937 171.545 97.802" fill="#F58634"/>
<path d="M161.363 98.7471C153.416 103.108 146.973 113.707 146.973 122.415C146.973 131.122 153.416 134.665 161.363 130.304C169.311 125.942 175.761 115.352 175.753 106.636C175.746 97.921 169.303 94.3932 161.363 98.7471Z" fill="#F58634"/>
<path d="M169.303 118.083V119.08C167.399 122.307 164.668 125.026 161.363 126.984C158.267 128.674 155.469 128.86 153.416 127.781V125.727C153.521 123.589 154.164 121.507 155.29 119.654C156.416 117.801 157.994 116.232 159.89 115.076L161.983 113.93C163.832 112.918 165.635 112.784 167.046 113.565C168.457 114.347 169.303 115.992 169.303 118.083Z" fill="#F58634"/>
<path opacity="0.4" d="M166.442 94.9887L171.537 97.802C168.935 96.3656 165.337 96.5666 161.348 98.7472C156.143 101.605 151.582 107.135 149.058 113.059L143.956 110.253C146.487 104.299 151.01 98.7993 156.245 95.9414C160.243 93.7682 163.84 93.5598 166.442 94.9887Z" fill="white"/>
<path opacity="0.2" d="M151.002 131.152L146.119 128.465C143.501 127.051 141.871 124 141.871 119.609L146.973 122.422C147.005 126.664 148.509 129.686 151.002 131.152Z" fill="black"/>
<path opacity="0.1" d="M143.971 110.254L149.074 113.059C147.766 116.025 147.064 119.2 147.005 122.415L141.902 119.601C141.965 116.389 142.667 113.218 143.971 110.254Z" fill="black"/>
<path d="M159.545 113.461C159.059 113.466 158.58 113.348 158.158 113.119C157.649 112.797 157.241 112.35 156.978 111.826C156.714 111.302 156.605 110.72 156.661 110.142C156.727 108.786 157.135 107.465 157.849 106.289C158.564 105.113 159.565 104.117 160.768 103.384C161.251 103.018 161.84 102.798 162.456 102.755C163.073 102.711 163.689 102.845 164.224 103.139C164.759 103.434 165.189 103.874 165.456 104.404C165.723 104.934 165.815 105.527 165.721 106.108C165.653 107.464 165.245 108.784 164.531 109.96C163.816 111.135 162.816 112.132 161.614 112.866C160.992 113.234 160.278 113.44 159.545 113.461Z" fill="white"/>
<path d="M167.046 113.558C165.635 112.776 163.832 112.91 161.983 113.923L159.89 115.069C157.993 116.225 156.415 117.796 155.288 119.65C154.162 121.505 153.52 123.588 153.416 125.727V127.788C155.469 128.867 158.267 128.681 161.363 126.992C164.668 125.034 167.399 122.315 169.303 119.088V118.09C169.303 115.992 168.488 114.347 167.046 113.558Z" fill="white"/>
<path d="M328.174 242.315C328.174 242.315 329.217 233.622 333.77 226.871C338.324 220.121 344.578 215.916 350.418 215.477C356.257 215.038 360.975 220.143 354.728 223.664C348.482 227.184 337.383 230.741 332.273 243.84L328.174 242.315Z" fill="#F58634"/>
<path opacity="0.1" d="M328.174 242.315C328.174 242.315 329.217 233.622 333.77 226.871C338.324 220.121 344.578 215.916 350.418 215.477C356.257 215.038 360.975 220.143 354.728 223.664C348.482 227.184 337.383 230.741 332.273 243.84L328.174 242.315Z" fill="black"/>
<path d="M329.89 240.052H329.828C329.751 240.022 329.69 239.965 329.657 239.892C329.625 239.82 329.624 239.738 329.655 239.665C335.816 225.264 347.541 219.243 352.886 218.082C352.927 218.073 352.968 218.072 353.009 218.078C353.049 218.085 353.088 218.099 353.123 218.119C353.158 218.14 353.188 218.167 353.212 218.199C353.236 218.231 353.253 218.267 353.263 218.305C353.272 218.343 353.273 218.382 353.266 218.421C353.26 218.46 353.245 218.497 353.223 218.53C353.201 218.563 353.173 218.592 353.139 218.614C353.106 218.637 353.068 218.653 353.027 218.662C347.792 219.808 336.294 225.718 330.235 239.896C330.205 239.955 330.154 240.003 330.092 240.031C330.029 240.06 329.958 240.067 329.89 240.052Z" fill="white"/>
<path d="M361.069 240.223C360.544 241.355 359.243 241.95 358.036 242.411C356.829 242.873 355.512 243.372 354.854 244.443C353.537 246.602 355.7 249.653 354.289 251.744C353.957 252.165 353.539 252.518 353.059 252.782C352.58 253.045 352.049 253.214 351.499 253.278C350.598 253.434 349.681 253.434 348.772 253.508C348.336 253.503 347.902 253.471 347.471 253.412C346.204 253.143 344.88 253.277 343.701 253.791C341.89 254.759 341.349 256.924 340.236 258.599C339.556 259.585 338.66 260.42 337.609 261.047C336.558 261.674 335.377 262.078 334.146 262.231C333.363 262.328 331.795 262.469 331.011 262.03C330.95 262.001 330.892 261.967 330.839 261.926C330.721 261.807 330.58 261.65 330.518 261.569C330.513 261.551 330.513 261.534 330.518 261.517C330.196 260.393 330.721 259.232 330.745 258.071V257.862C330.69 256.515 330.651 255.175 330.619 253.836C330.551 251.355 330.525 248.874 330.541 246.393C330.541 244.786 330.353 243.029 331.074 241.518C331.858 239.851 333.833 239.814 334.577 238.184C334.875 237.529 335.032 236.837 335.322 236.175C335.77 235.212 336.488 234.384 337.397 233.781C338.307 233.179 339.373 232.825 340.479 232.758C343.92 232.595 347 235.237 350.441 234.991C351.327 234.924 352.197 234.664 353.075 234.515C355.857 234.016 359.078 234.768 360.646 237.008C360.99 237.469 361.208 238.004 361.282 238.565C361.356 239.126 361.283 239.696 361.069 240.223Z" fill="#F58634"/>
<path d="M330.173 256.359C330.098 256.338 330.036 256.29 329.998 256.227C329.96 256.163 329.949 256.087 329.969 256.016C334.718 239.092 353.482 236.666 357.895 236.948C357.933 236.95 357.972 236.96 358.006 236.976C358.041 236.992 358.073 237.014 358.098 237.042C358.124 237.07 358.143 237.102 358.155 237.137C358.168 237.172 358.172 237.209 358.169 237.246C358.161 237.319 358.124 237.385 358.066 237.432C358.007 237.479 357.932 237.503 357.855 237.499C353.553 237.209 335.181 239.598 330.533 256.165C330.511 256.236 330.461 256.295 330.394 256.331C330.327 256.367 330.247 256.377 330.173 256.359Z" fill="white"/>
<path d="M351.044 247.785C350.985 247.777 350.93 247.751 350.888 247.71C349.153 246.283 347.108 245.236 344.898 244.646C342.688 244.055 340.369 243.935 338.104 244.294C338.028 244.301 337.952 244.28 337.891 244.236C337.83 244.192 337.789 244.128 337.775 244.056C337.764 243.983 337.783 243.909 337.828 243.849C337.874 243.79 337.942 243.749 338.018 243.736C340.38 243.363 342.799 243.49 345.102 244.109C347.406 244.728 349.537 245.823 351.342 247.316C351.37 247.342 351.392 247.372 351.407 247.406C351.422 247.44 351.43 247.476 351.43 247.513C351.43 247.55 351.422 247.586 351.407 247.62C351.392 247.654 351.37 247.685 351.342 247.71C351.307 247.751 351.259 247.779 351.206 247.793C351.153 247.806 351.096 247.803 351.044 247.785Z" fill="white"/>
<path d="M285.043 37.9046L287.535 38.8126V33.6028C287.535 29.4647 291.007 28.4748 294.777 30.5439C298.555 32.6129 301.612 37.6366 301.612 41.7747V42.519C302.137 42.3665 302.692 42.3288 303.235 42.4088C303.778 42.4887 304.295 42.6841 304.747 42.9804C306.178 43.8668 307.37 45.0613 308.223 46.4671C309.077 47.8728 309.57 49.45 309.661 51.0705V51.4128L313.141 53.3181C314.083 53.9017 314.866 54.6875 315.429 55.612C315.991 56.5364 316.316 57.5736 316.378 58.6396C316.378 60.6044 314.928 61.4008 313.141 60.4183L285.043 45.0048C284.101 44.4226 283.317 43.6369 282.756 42.7121C282.195 41.7872 281.872 40.7493 281.814 39.6833C281.814 37.7259 283.248 36.9296 285.043 37.9046Z" fill="#E6E6E6"/>
<path d="M318.424 33.7816L322.946 36.26C322.921 36.0724 322.908 35.8835 322.907 35.6944V34.4515C322.907 32.2187 324.537 31.3405 326.559 32.4494C327.428 32.9546 328.172 33.6325 328.738 34.4366C329.067 31.6531 331.372 30.6185 334.162 32.1443C335.757 33.1295 337.084 34.4575 338.037 36.0208C338.991 37.5841 339.542 39.3387 339.648 41.1423V43.003C339.669 43.7464 339.51 44.4845 339.186 45.1613L342.948 47.2155C343.534 47.5847 344.021 48.0794 344.37 48.6597C344.718 49.2401 344.919 49.89 344.955 50.5572C344.955 51.7852 344.045 52.2839 342.925 51.6736L318.424 38.2769C317.831 37.9103 317.338 37.4158 316.986 36.8337C316.633 36.2516 316.43 35.5985 316.394 34.9278C316.394 33.67 317.303 33.1713 318.424 33.7816Z" fill="#E6E6E6"/>
<path d="M300.914 146.737C297.622 152.021 294.456 156.613 292.23 158.816C288.006 160.677 278.083 163.55 274.203 164.026C273.522 164.109 272.832 163.955 272.26 163.595C270.731 162.642 269.548 162.486 267.941 161.957C266.679 161.548 266.146 160.975 265.911 161.213C265.668 161.483 265.546 161.833 265.571 162.188C265.596 162.542 265.766 162.873 266.044 163.111C266.647 163.655 267.315 164.129 268.035 164.525C266.314 164.93 264.519 164.961 262.784 164.614C259.421 163.773 257.838 165.306 260.111 168.775C260.895 170.01 264.124 171.997 270.614 171.461C272.929 171.343 275.234 171.094 277.519 170.717C283.742 169.452 290.663 168.231 294.918 166.996C296.502 166.405 297.918 165.472 299.057 164.272C306.213 156.524 308.588 151.002 311.723 145.985L311.456 137.799C306.377 137.635 303.665 142.316 300.914 146.737Z" fill="#FFA8A7"/>
<path d="M312.326 137.635C310.853 137.438 309.352 137.628 307.985 138.183C306.617 138.737 305.435 139.637 304.567 140.783C301.087 145.018 294.926 155.184 294.926 155.184C294.926 155.184 296.941 160.283 302.38 161.139L311.119 149.93C311.119 149.93 315.257 142.145 312.326 137.635Z" fill="#455A64"/>
<path d="M331.223 251.908H325.525V261.554H331.223V251.908Z" fill="#FFA8A7"/>
<path d="M311.472 251.395L305.782 251.588L305.492 241.377L311.472 241.183V251.395Z" fill="#FFA8A7"/>
<path d="M332.022 168.41C332.022 173.783 331.191 217.077 331.191 217.077C331.317 218.625 332.759 221.483 332.469 227.429C332.038 235.505 331.466 256.731 331.466 256.731C330.488 257.206 329.408 257.464 328.31 257.484C327.211 257.505 326.122 257.288 325.125 256.85C325.125 256.85 320.501 227.08 319.482 219.109C318.588 212.12 316.3 188.988 316.3 188.988L313.22 216.332C313.873 219.266 314.11 222.27 313.925 225.264C313.658 228.985 311.824 248.246 311.824 248.246C310.84 248.798 309.736 249.129 308.597 249.215C307.458 249.302 306.313 249.141 305.249 248.745C305.249 248.745 302.004 219.719 301.941 216.31C301.863 212.44 303.838 168.365 303.838 168.365L332.022 168.41Z" fill="#37474F"/>
<path d="M325.525 258.77V257.966C324.976 258.197 323.714 262.975 321.449 265.014C319.654 266.637 317.209 268.505 316.582 270.313C315.955 272.122 319.991 273.231 321.676 272.941C323.62 272.598 327.006 271.236 327.853 269.964C328.699 268.691 329.099 266.845 329.788 265.922C330.478 264.999 332.069 263.972 332.438 262.901C332.553 261.898 332.443 260.883 332.116 259.924C331.85 258.926 331.568 257.832 331.223 257.929V258.539C330.419 259.165 329.409 259.503 328.37 259.492C327.539 259.559 325.517 259.395 325.525 258.77Z" fill="#263238"/>
<path d="M305.719 249.846C305.421 249.846 305.178 250.271 304.528 250.97C303.56 251.936 302.429 252.741 301.181 253.352C299.049 254.409 294.911 256.031 293.022 256.872C291.846 257.393 291.901 258.792 293.116 259.589C294.331 260.385 297.254 260.958 300.765 260.184C302.678 259.76 305.17 258.011 306.754 258.108C308.337 258.204 311.276 258.175 312.444 257.363C313.612 256.552 313.141 254.87 312.812 253.419C312.452 251.826 312.028 249.348 311.472 249.459V250.018C310.79 251.045 307.255 251.461 305.75 250.71L305.719 249.846Z" fill="#263238"/>
<path d="M316.3 188.989C313.336 188.067 310.626 186.529 308.368 184.486C308.368 184.486 309.936 187.321 314.45 189.964L313.478 214.383L316.3 188.989Z" fill="#263238"/>
<path d="M328.84 138.424C328.84 138.424 333.543 139.451 333.206 147.518L332.226 160.357V179.633C328.041 184.143 309.497 183.816 303.109 179.276C303.109 179.276 303.83 156.464 304.261 147.682C304.567 141.445 306.079 138.305 312.538 137.62L320.477 137.947L328.84 138.424Z" fill="#F58634"/>
<path d="M322.852 121.663C322.879 122.743 322.681 123.818 322.269 124.825C321.856 125.832 321.238 126.751 320.45 127.53C319.661 128.309 318.718 128.932 317.675 129.364C316.632 129.795 315.509 130.026 314.372 130.043C309.669 130.043 306.91 126.188 305.891 121.663C304.01 113.379 309.685 113.275 314.372 113.275C316.668 113.32 318.851 114.229 320.441 115.802C322.031 117.375 322.898 119.483 322.852 121.663Z" fill="#263238"/>
<path d="M327.179 125.049C327.179 125.049 325.877 131.093 325.352 132.09C325.022 132.69 324.461 133.146 323.785 133.363L323.879 129.113L327.179 125.049Z" fill="#263238"/>
<path d="M325.541 116.394C325.541 116.394 326.473 116.17 327.469 117.644C328.315 118.902 328.511 121.73 327.179 125.087L324.725 125.369L325.541 116.394Z" fill="#263238"/>
<path d="M326.442 117.622L329.452 117.674C329.472 117.489 329.452 117.302 329.393 117.125C329.334 116.948 329.237 116.784 329.108 116.645C328.98 116.505 328.822 116.392 328.645 116.313C328.468 116.234 328.276 116.19 328.08 116.185C327.669 116.191 327.274 116.341 326.971 116.606C326.669 116.871 326.48 117.233 326.442 117.622Z" fill="#263238"/>
<path d="M326.81 116.944L329.036 114.913C328.908 114.769 328.75 114.652 328.572 114.57C328.393 114.487 328.199 114.44 328.001 114.433C327.803 114.425 327.605 114.456 327.42 114.525C327.236 114.594 327.068 114.698 326.928 114.831C326.633 115.105 326.457 115.474 326.435 115.866C326.413 116.257 326.547 116.642 326.81 116.944Z" fill="#263238"/>
<path d="M323.989 125.332C324.482 125.622 325.18 124.692 325.791 124.059C326.403 123.427 328.299 122.846 329.287 124.9C330.275 126.955 328.589 128.986 327.179 129.656C324.647 130.847 323.848 129.113 323.848 129.113L323.636 138.684C320.078 143.894 312.005 143.73 314.913 138.431V135.521C313.717 135.71 312.502 135.77 311.292 135.7C309.316 135.402 308.078 133.861 307.475 131.748C306.518 128.354 306.15 125.615 306.965 118.939C307.859 111.63 316.464 111.549 321.073 114.473C325.682 117.398 323.989 125.332 323.989 125.332Z" fill="#FFA8A7"/>
<path d="M313.267 117.801C315.32 117.607 317.35 117.205 319.411 117.056C319.856 117.005 320.306 117.025 320.744 117.116C322.311 117.525 322.123 119.267 322.374 120.48C322.805 122.579 323.158 126.129 323.989 126.144C324.239 126.144 325.18 124.603 325.791 124.052C326.127 123.578 326.317 123.024 326.34 122.452C326.497 121.589 326.575 120.703 326.646 119.825C326.708 119.081 326.787 118.336 326.787 117.592C326.822 116.751 326.751 115.909 326.575 115.084C326.378 114.382 326.001 113.738 325.478 113.208L325.321 113.045C324.288 112.019 323.034 111.217 321.645 110.693C319.647 109.982 317.551 109.548 315.422 109.405C313.296 109.262 311.18 109.014 309.081 108.661C308.961 108.628 308.833 108.628 308.713 108.661C308.628 108.706 308.556 108.77 308.504 108.848C308.452 108.926 308.421 109.015 308.415 109.108C308.329 109.57 308.383 110.046 308.57 110.481C308.757 110.916 309.07 111.291 309.473 111.564C308.054 111.668 306.424 110.968 305.06 110.611C304.95 110.567 304.831 110.544 304.712 110.544C304.592 110.544 304.473 110.567 304.363 110.611C304.226 110.702 304.129 110.837 304.089 110.991C303.989 111.34 303.976 111.707 304.049 112.062C304.174 113.139 304.596 114.166 305.272 115.039C306.328 116.345 307.821 117.272 309.504 117.667C310.744 117.894 312.013 117.939 313.267 117.801Z" fill="#263238"/>
<path d="M314.92 135.521C314.92 135.521 319.325 134.643 320.861 133.832C321.776 133.356 322.519 132.63 322.993 131.748C322.762 132.634 322.349 133.469 321.778 134.204C320.658 135.633 314.92 136.675 314.92 136.675V135.521Z" fill="#F28F8F"/>
<path d="M315.978 124.238C315.97 124.468 316.057 124.692 316.222 124.86C316.386 125.029 316.614 125.129 316.856 125.139C317.048 125.154 317.241 125.113 317.408 125.023C317.575 124.932 317.71 124.796 317.794 124.631C317.879 124.467 317.909 124.282 317.881 124.101C317.852 123.92 317.767 123.751 317.636 123.617C317.506 123.483 317.335 123.389 317.147 123.349C316.959 123.308 316.763 123.322 316.584 123.389C316.405 123.456 316.251 123.573 316.143 123.725C316.035 123.876 315.978 124.055 315.978 124.238Z" fill="#263238"/>
<path d="M317.389 120.629L319.278 121.663C319.416 121.408 319.447 121.113 319.365 120.837C319.284 120.561 319.096 120.325 318.839 120.175C318.714 120.108 318.576 120.067 318.433 120.053C318.29 120.04 318.145 120.056 318.009 120.098C317.873 120.141 317.747 120.21 317.64 120.301C317.534 120.393 317.448 120.504 317.389 120.629Z" fill="#263238"/>
<path d="M315.312 130.274L313.298 131.018C313.338 131.15 313.407 131.271 313.499 131.376C313.591 131.481 313.705 131.567 313.834 131.629C313.963 131.69 314.103 131.726 314.247 131.734C314.391 131.741 314.535 131.721 314.67 131.673C314.944 131.561 315.163 131.354 315.282 131.094C315.401 130.835 315.412 130.541 315.312 130.274Z" fill="#F28F8F"/>
<path d="M307.874 121.395L309.599 120.085C309.521 119.971 309.42 119.873 309.3 119.799C309.18 119.724 309.045 119.674 308.904 119.653C308.763 119.631 308.619 119.638 308.48 119.672C308.342 119.707 308.213 119.769 308.102 119.854C307.871 120.04 307.721 120.299 307.679 120.584C307.637 120.868 307.706 121.157 307.874 121.395Z" fill="#263238"/>
<path d="M308.635 123.993C308.648 124.156 308.712 124.311 308.817 124.44C308.922 124.57 309.065 124.667 309.227 124.72C309.39 124.774 309.565 124.781 309.732 124.742C309.899 124.702 310.05 124.617 310.167 124.497C310.284 124.377 310.362 124.228 310.391 124.067C310.419 123.906 310.398 123.74 310.33 123.59C310.261 123.44 310.148 123.313 310.004 123.223C309.86 123.133 309.692 123.085 309.52 123.085C309.399 123.089 309.28 123.115 309.17 123.163C309.059 123.211 308.96 123.279 308.878 123.363C308.796 123.448 308.732 123.547 308.69 123.655C308.648 123.763 308.629 123.878 308.635 123.993Z" fill="#263238"/>
<path d="M313.361 123.293L313.259 128.585L310.092 127.9L313.361 123.293Z" fill="#F28F8F"/>
<path d="M238.165 167.613L243.08 164.919L245.023 162.679L240.117 165.373L238.165 167.613Z" fill="#F58634"/>
<path opacity="0.4" d="M238.165 167.613L243.08 164.919L245.023 162.679L240.117 165.373L238.165 167.613Z" fill="black"/>
<path d="M251.529 174.937L256.443 172.243L260.542 168.797L255.636 171.484L251.529 174.937Z" fill="#F58634"/>
<path opacity="0.4" d="M251.529 174.937L256.443 172.243L260.542 168.797L255.636 171.484L251.529 174.937Z" fill="black"/>
<path d="M293.273 184.233C294.435 185.712 295.138 187.47 295.303 189.309C294.146 187.827 293.443 186.07 293.273 184.233ZM304.692 184.374C303.038 173.694 296.995 163.133 289.8 159.181C286.344 157.283 283.146 157.216 280.583 158.638L275.959 161.168L275.7 161.317C275.494 161.425 275.296 161.544 275.105 161.674C274.725 161.923 274.368 162.201 274.039 162.508L273.882 162.649C273.741 162.783 273.592 162.94 273.459 163.088C273.326 163.237 273.122 163.468 272.965 163.669C272.632 164.085 272.331 164.522 272.064 164.979C271.923 165.21 271.789 165.455 271.664 165.723L231.276 143.589L226.37 146.276V149.253L226.785 149.476L227.177 149.692V150.287L226.393 150.726V152.453L232.326 164.361L238.189 167.584L240.141 165.351L245.313 168.291L248.284 173.121L251.56 174.915L255.659 171.461L260.691 174.222L262.384 180.854L270.841 185.498C271.259 187.186 271.782 188.848 272.409 190.477C272.463 190.641 272.534 190.812 272.604 190.998C275.41 197.994 279.87 203.985 284.902 206.746C285.505 207.086 286.137 207.377 286.791 207.617C287.137 207.748 287.49 207.86 287.849 207.952C288.162 208.032 288.476 208.099 288.789 208.153C289.779 208.324 290.794 208.324 291.783 208.153L292.191 208.056C292.386 208.019 292.577 207.967 292.763 207.9L293.202 207.736C293.357 207.683 293.507 207.616 293.649 207.535C293.794 207.476 293.935 207.409 294.072 207.334L294.276 207.215C294.313 207.204 294.347 207.186 294.378 207.163C295.498 206.553 298.257 205.035 299.01 204.633C302.741 202.579 305.155 197.384 305.155 190.038C305.148 188.142 304.994 186.249 304.692 184.374Z" fill="#F58634"/>
<path d="M291.838 193.246C289.895 192.182 288.327 189.026 288.327 186.198C288.327 183.37 289.895 181.933 291.838 182.99C293.782 184.047 295.342 187.21 295.342 190.046C295.342 192.881 293.774 194.31 291.838 193.246ZM299.778 187.061C298.132 176.388 292.089 165.82 284.886 161.875C281.547 160.045 278.459 159.911 275.951 161.168L275.693 161.317C275.487 161.425 275.288 161.544 275.097 161.674C274.717 161.923 274.36 162.202 274.031 162.508L273.874 162.649C273.733 162.783 273.584 162.94 273.451 163.089C273.318 163.237 273.114 163.468 272.957 163.669C272.624 164.085 272.323 164.523 272.056 164.979C271.915 165.21 271.782 165.455 271.656 165.723C270.925 167.162 270.398 168.686 270.089 170.256L226.362 146.276V149.253L226.777 149.476L227.169 149.692V150.287L226.385 150.726V152.453L232.319 164.361L238.181 167.584L240.133 165.351L245.306 168.291L248.276 173.121L251.552 174.915L255.651 171.461L260.683 174.223L262.376 180.854L270.841 185.498C271.259 187.186 271.782 188.848 272.409 190.477C272.463 190.641 272.534 190.812 272.604 190.998C275.41 197.994 279.87 203.985 284.902 206.747C285.505 207.086 286.137 207.378 286.791 207.617C287.137 207.748 287.49 207.86 287.849 207.952C288.162 208.032 288.476 208.099 288.789 208.153C289.779 208.325 290.794 208.325 291.783 208.153L292.191 208.057C292.386 208.019 292.577 207.967 292.763 207.9L293.202 207.736C293.357 207.683 293.507 207.616 293.649 207.536C293.794 207.476 293.935 207.409 294.072 207.335L294.276 207.215C294.313 207.204 294.347 207.186 294.378 207.163C297.952 205.02 300.248 199.899 300.248 192.732C300.235 190.834 300.078 188.938 299.778 187.061Z" fill="#F58634"/>
<path opacity="0.4" d="M295.342 190.038C295.342 192.873 293.774 194.31 291.838 193.246C289.902 192.181 288.327 189.033 288.327 186.197C288.327 183.362 289.894 181.925 291.838 182.99C292.398 183.313 292.885 183.738 293.273 184.24C293.441 186.078 294.144 187.835 295.302 189.316C295.331 189.556 295.344 189.797 295.342 190.038Z" fill="black"/>
<path opacity="0.4" d="M305.139 190.03C305.139 197.376 302.725 202.571 298.994 204.625C298.21 205.027 295.483 206.546 294.362 207.156C297.936 205.012 300.232 199.892 300.232 192.725C300.224 190.829 300.072 188.936 299.778 187.061C298.132 176.388 292.089 165.82 284.886 161.875C281.547 160.044 278.459 159.91 275.951 161.168L280.575 158.638C283.138 157.216 286.336 157.283 289.793 159.181C296.995 163.133 303.038 173.694 304.684 184.374C304.983 186.246 305.135 188.137 305.139 190.03Z" fill="white"/>
<path d="M300.233 192.71C300.233 199.877 297.936 204.998 294.362 207.141C295.483 206.531 298.242 205.012 298.994 204.611C302.725 202.556 305.139 197.362 305.139 190.016C305.139 189.748 305.139 189.472 305.139 189.197L300.233 191.891C300.225 192.181 300.233 192.449 300.233 192.71Z" fill="#F58634"/>
<path opacity="0.1" d="M300.233 192.71C300.233 199.877 297.936 204.998 294.362 207.141C295.483 206.531 298.242 205.012 298.994 204.611C302.725 202.556 305.139 197.362 305.139 190.016C305.139 189.748 305.139 189.472 305.139 189.197L300.233 191.891C300.225 192.181 300.233 192.449 300.233 192.71Z" fill="black"/>
<path opacity="0.15" d="M270.277 173.3V174.81L226.37 150.741L227.177 150.295V149.669L270.277 173.3Z" fill="black"/>
<path opacity="0.15" d="M270.277 173.925V174.81L226.37 150.741L227.177 150.295V150.287L270.277 173.925Z" fill="black"/>
<path opacity="0.15" d="M289.369 204.618C287.705 204.577 286.082 204.117 284.667 203.286C277.511 199.364 271.687 187.694 271.687 177.274C271.687 171.193 273.623 166.653 277.001 164.8C279.353 163.505 282.135 163.669 285.059 165.269C292.207 169.191 298.03 180.899 298.03 191.318C298.03 197.391 296.094 201.939 292.716 203.784C291.697 204.337 290.543 204.624 289.369 204.618ZM280.395 164.689C279.351 164.683 278.323 164.94 277.417 165.433C274.337 167.122 272.495 171.551 272.495 177.267C272.495 187.448 278.138 198.85 285.082 202.631C287.739 204.119 290.255 204.253 292.348 203.107C295.428 201.418 297.27 196.997 297.27 191.281C297.27 181.092 291.627 169.697 284.69 165.909C283.394 165.16 281.912 164.749 280.395 164.718V164.689Z" fill="black"/>
<path opacity="0.4" d="M271.625 165.708C270.894 167.147 270.367 168.671 270.057 170.241L226.33 146.261L231.237 143.574L271.625 165.708Z" fill="white"/>
<path d="M328.456 168.038C330.745 163.922 333.363 154.678 334.664 150.012C336.513 143.388 333.519 139.22 330.118 139.049C327.994 139.362 320.995 163.528 320.995 163.528C320.211 164.116 309.575 169.243 306.158 170.531C305.547 170.751 304.872 170.751 304.261 170.531C302.623 169.965 301.502 170.07 299.895 169.921C298.634 169.802 297.999 169.377 297.834 169.63C297.685 169.945 297.665 170.301 297.78 170.627C297.895 170.954 298.135 171.228 298.453 171.394C299.145 171.777 299.882 172.082 300.648 172.302C299.274 172.698 297.843 172.881 296.408 172.846C293.116 172.779 291.932 174.133 294.487 177.311C296.055 179.291 298.649 179.916 304.441 178.018C306.103 177.467 308.36 176.403 310.469 175.681C314.811 174.193 315.955 174.014 319.263 172.95C324.083 171.402 327.437 169.869 328.456 168.038Z" fill="#FFA8A7"/>
<path d="M328.84 138.424C330.839 138.684 332.759 139.108 333.943 140.656C335.126 142.205 336.074 144.378 334.914 150.295C334.026 154.456 332.837 158.554 331.356 162.56C331.356 162.56 326.7 164.45 321.755 159.657L325.156 147.169C325.156 147.169 325.705 139.049 328.84 138.424Z" fill="#455A64"/>
</svg>
