<svg width="350" height="63" viewBox="0 0 350 63" fill="none" xmlns="http://www.w3.org/2000/svg">
<path fill-rule="evenodd" clip-rule="evenodd" d="M49.8144 5.89062H2.91621C1.34131 5.89062 0 7.23193 0 8.86603V14.1742C0 15.8072 1.34131 17.1496 2.91621 17.1496H49.8144C51.4474 17.1496 52.7306 15.8083 52.7898 14.1742V8.92415C52.7898 7.23193 51.4485 5.89062 49.8144 5.89062ZM49.8144 35.3486H2.91621C2.15729 35.3486 1.39944 35.6404 0.875179 36.2238C0.291726 36.8073 0 37.507 0 38.3241V43.6322C0 45.2652 1.34131 46.6076 2.91621 46.6076H49.8144C51.4474 46.6076 52.7306 45.3244 52.7898 43.6322V38.3241C52.7317 36.6329 51.4485 35.3486 49.8144 35.3486ZM29.3407 50.0481H2.91621C2.15729 50.0481 1.39944 50.3398 0.875179 50.9232C0.34986 51.5067 0 52.2064 0 53.0235V58.3316C0 59.9646 1.34131 61.307 2.91621 61.307H29.2826C30.9156 61.307 32.1988 59.9657 32.1988 58.3908V53.0826C32.2569 51.3323 30.9737 50.0502 29.3407 50.0502V50.0481ZM52.7898 20.59H2.91621C2.15729 20.59 1.39944 20.8818 0.875179 21.4652C0.34986 22.0487 0 22.7484 0 23.5654V28.8736C0 30.5066 1.34131 31.849 2.91621 31.849H52.7317C54.3647 31.849 55.6479 30.5077 55.6479 28.8736V23.5654C55.706 21.9905 54.3647 20.6492 52.7898 20.59Z" fill="#2DBDEF"/>
<path fill-rule="evenodd" clip-rule="evenodd" d="M107.33 17.7911C105.872 16.2743 104.18 15.1074 102.256 14.2914C100.331 13.4744 98.2887 13.0664 96.1896 13.0664C94.1485 13.0082 92.1646 13.4744 90.298 14.3496C89.0729 14.933 87.9652 15.749 87.0308 16.7415V15.8082C87.0308 15.3421 86.8564 14.8749 86.5647 14.525C86.273 14.1751 85.8069 13.9416 85.2815 13.9416H78.8065C78.3404 13.9416 77.8732 14.117 77.5814 14.525C77.2316 14.8749 77.0561 15.341 77.1153 15.8082V59.4403C77.1153 59.9064 77.2897 60.3736 77.5814 60.7235C77.9313 61.0733 78.3404 61.2488 78.8065 61.2488H85.457C85.9231 61.2488 86.3322 61.0744 86.682 60.7245C87.0319 60.4328 87.2655 59.9656 87.2074 59.4403V44.5073C88.1407 45.5569 89.3657 46.3158 90.707 46.7819C92.4574 47.4235 94.2659 47.7734 96.1325 47.7734C98.2327 47.7734 100.332 47.3643 102.258 46.5483C104.182 45.7323 105.932 44.5654 107.39 43.0487C108.907 41.4738 110.074 39.6071 110.89 37.565C111.823 35.2904 112.231 32.8404 112.174 30.3903C112.232 27.9402 111.765 25.4901 110.89 23.1574C110.015 21.2326 108.849 19.366 107.331 17.7911H107.33ZM101.38 33.5993C101.031 34.5326 100.505 35.3496 99.8055 36.1075C98.4642 37.5661 96.5384 38.3821 94.5555 38.3821C93.564 38.3821 92.5726 38.2066 91.6393 37.7405C90.7641 37.3325 89.9481 36.8072 89.2473 36.1075C88.5476 35.4078 88.0223 34.5326 87.6724 33.5993C86.9135 31.6164 86.9135 29.457 87.6724 27.4741C88.0223 26.5408 88.6057 25.7237 89.2473 25.024C89.947 24.3243 90.7641 23.7408 91.6393 23.3328C92.5726 22.9248 93.564 22.6912 94.5555 22.6912C95.6051 22.6912 96.5384 22.8656 97.5309 23.3328C98.4061 23.7408 99.2221 24.2661 99.8636 24.9659C100.563 25.6656 101.031 26.4826 101.439 27.4159C102.138 29.457 102.08 31.6164 101.38 33.5993ZM147.812 13.9997H141.221C140.755 13.9997 140.288 14.1751 139.996 14.525C139.646 14.8749 139.472 15.341 139.472 15.8663V16.6823C138.655 15.6909 137.605 14.9319 136.496 14.4077C134.688 13.5325 132.705 13.1234 130.721 13.1234C126.463 13.1234 122.438 14.8157 119.405 17.79C117.83 19.3649 116.605 21.2315 115.788 23.2726C114.855 25.5472 114.389 27.9973 114.447 30.5055C114.389 32.9556 114.855 35.4057 115.788 37.7384C116.663 39.7794 117.829 41.6471 119.405 43.2209C122.38 46.2545 126.464 47.9456 130.663 47.9456C132.646 48.0038 134.63 47.5366 136.437 46.6614C137.545 46.078 138.654 45.3201 139.471 44.3868V45.262C139.471 45.7281 139.645 46.1953 139.995 46.5451C140.345 46.8369 140.754 47.0694 141.22 47.0694H147.811C148.278 47.0694 148.745 46.895 149.036 46.5451C149.386 46.1953 149.561 45.7281 149.561 45.262V15.9213C149.561 15.4552 149.386 14.988 149.095 14.6381C148.745 14.2301 148.278 13.9965 147.811 13.9965L147.812 13.9997ZM138.887 33.5993C138.537 34.5326 138.012 35.3496 137.312 36.1075C136.613 36.8072 135.854 37.3906 134.98 37.7986C133.113 38.6738 130.955 38.6738 129.088 37.7986C128.213 37.3906 127.397 36.8072 126.696 36.1075C125.996 35.4078 125.471 34.5326 125.121 33.5993C124.421 31.6164 124.421 29.457 125.121 27.4741C125.471 26.5408 125.996 25.7829 126.696 25.024C127.396 24.3243 128.155 23.7408 129.088 23.3328C130.955 22.4576 133.113 22.4576 134.922 23.3328C135.797 23.7408 136.614 24.2661 137.254 24.9659C137.896 25.6656 138.421 26.4826 138.829 27.4159C139.645 29.457 139.645 31.6164 138.887 33.5993ZM213.494 29.6324C212.561 28.8154 211.453 28.1157 210.286 27.6495C209.061 27.1242 207.72 26.7743 206.437 26.4826L201.42 25.4912C200.137 25.2576 199.204 24.9077 198.737 24.4997C198.329 24.208 198.037 23.7419 198.037 23.2166C198.037 22.6923 198.329 22.2251 198.97 21.8171C199.845 21.351 200.779 21.1174 201.77 21.1755C203.053 21.1755 204.337 21.4673 205.503 21.9344C206.67 22.4587 207.778 22.984 208.829 23.6848C210.287 24.6181 211.571 24.4426 212.446 23.3931L214.838 20.6513C215.304 20.1851 215.537 19.6017 215.596 18.9601C215.537 18.2604 215.188 17.6769 214.662 17.2097C213.671 16.3346 212.038 15.4012 209.879 14.4679C207.721 13.5346 204.979 13.0685 201.771 13.0685C199.788 13.0104 197.863 13.301 195.997 13.8845C194.422 14.4098 192.905 15.1677 191.564 16.1591C190.339 17.0924 189.406 18.2593 188.706 19.6588C188.064 21.0001 187.715 22.4587 187.715 23.9173C187.715 26.6591 188.532 28.8756 190.165 30.5087C191.798 32.1417 193.956 33.2505 196.64 33.7758L201.89 34.9427C202.997 35.1171 204.164 35.467 205.215 35.9923C205.798 36.2259 206.148 36.8083 206.148 37.4509C206.148 38.0344 205.857 38.5586 205.215 39.0258C204.573 39.493 203.523 39.7847 202.123 39.7847C200.724 39.7847 199.265 39.493 197.982 38.8514C196.757 38.268 195.649 37.5101 194.599 36.6349C194.132 36.285 193.665 35.9933 193.082 35.7597C192.498 35.5853 191.741 35.7597 190.982 36.4013L188.124 38.5597C187.308 39.1431 186.899 40.1346 187.132 41.0679C187.307 42.0593 188.065 42.9926 189.524 44.1014C193.141 46.5515 197.458 47.8347 201.832 47.7173C203.873 47.7173 205.915 47.4848 207.839 46.9014C209.532 46.376 211.107 45.6182 212.506 44.5686C213.789 43.6353 214.839 42.4102 215.539 40.9516C216.239 39.5522 216.589 38.0354 216.589 36.4594C216.647 35.06 216.355 33.6595 215.773 32.3763C215.19 31.443 214.431 30.4505 213.497 29.6345L213.494 29.6324ZM242.311 37.6242C242.019 37.0989 241.494 36.7491 240.852 36.6328C240.269 36.6328 239.627 36.8083 239.161 37.1581C238.345 37.6834 237.41 37.9741 236.477 38.0333C236.185 38.0333 235.836 37.9752 235.544 37.916C235.194 37.8578 234.902 37.6834 234.669 37.4499C234.377 37.1581 234.143 36.8083 233.969 36.4584C233.735 35.8749 233.619 35.2915 233.677 34.708V22.7504H242.193C242.719 22.7504 243.185 22.5168 243.535 22.167C243.885 21.8171 244.118 21.4081 244.118 20.8827V15.8082C244.118 15.2829 243.944 14.8167 243.535 14.525C243.185 14.1751 242.719 13.9997 242.251 13.9997H233.676V5.83346C233.676 5.36734 233.502 4.84202 233.152 4.55029C232.802 4.25856 232.393 4.08311 231.927 4.02497H225.277C224.811 4.02497 224.344 4.20043 223.994 4.55029C223.644 4.90015 223.411 5.36734 223.411 5.83346V13.9997H219.619C219.153 13.9997 218.686 14.1751 218.336 14.5831C218.045 14.933 217.87 15.3991 217.87 15.8663V20.9409C217.87 21.4081 218.045 21.8742 218.336 22.2251C218.628 22.6331 219.094 22.8086 219.619 22.8086H223.411V37.0418C223.353 38.733 223.703 40.4252 224.402 41.942C225.044 43.2252 225.861 44.334 226.969 45.2673C228.018 46.1424 229.243 46.784 230.585 47.1339C231.927 47.5419 233.326 47.7755 234.727 47.7755C236.535 47.7755 238.402 47.4837 240.152 46.9003C241.785 46.375 243.244 45.4417 244.411 44.2166C245.169 43.4577 245.227 42.2337 244.644 41.3586L242.312 37.6253L242.311 37.6242ZM278.36 13.9997H271.769C271.303 13.9997 270.894 14.1751 270.544 14.525C270.194 14.8749 270.018 15.341 270.018 15.8663V16.6823C269.202 15.6909 268.21 14.9319 267.044 14.4077C265.236 13.5325 263.253 13.1234 261.269 13.1234C257.01 13.1234 252.985 14.8157 249.953 17.79C248.378 19.3649 247.153 21.2315 246.336 23.2726C245.402 25.5472 244.936 27.9973 244.994 30.4473C244.936 32.8974 245.402 35.3475 246.336 37.6803C247.152 39.7213 248.436 41.589 249.953 43.1639C252.928 46.1974 256.952 47.8886 261.211 47.8886C263.193 47.9467 265.177 47.4795 266.985 46.6635C268.152 46.0801 269.201 45.3222 270.018 44.3889V45.2641C270.018 45.7302 270.194 46.1974 270.544 46.4891C270.894 46.839 271.303 47.0134 271.769 47.0134H278.36C279.351 47.0134 280.11 46.2555 280.11 45.263V15.9223C280.11 15.4552 279.935 14.989 279.644 14.6381C279.353 14.2301 278.885 13.9965 278.36 13.9965V13.9997ZM269.494 33.6574C269.144 34.5907 268.619 35.4077 267.919 36.1656C267.219 36.8653 266.461 37.4488 265.586 37.8568C264.653 38.2648 263.662 38.4984 262.611 38.4984C261.561 38.4984 260.628 38.2648 259.695 37.8568C258.82 37.4488 258.004 36.8653 257.303 36.1656C256.603 35.4648 256.078 34.5907 255.786 33.6574C255.086 31.6745 255.086 29.5151 255.786 27.5322C256.136 26.5989 256.661 25.7818 257.303 25.0821C258.003 24.3824 258.82 23.7989 259.695 23.391C260.628 22.9819 261.62 22.7494 262.611 22.7494C263.604 22.7494 264.594 22.9238 265.586 23.391C266.462 23.7989 267.219 24.3243 267.919 25.024C268.619 25.7237 269.144 26.5408 269.494 27.4741C270.252 29.3988 270.252 31.6745 269.494 33.6574ZM314.527 37.2162L310.735 34.3C310.036 33.7166 309.336 33.5411 308.752 33.7747C308.228 34.0083 307.761 34.3582 307.353 34.7662C306.537 35.7576 305.544 36.6328 304.495 37.3907C303.328 38.0322 302.103 38.3821 300.82 38.2658C299.303 38.2658 297.904 37.8578 296.677 36.9826C295.452 36.1075 294.519 34.9416 294.053 33.483C293.703 32.4916 293.529 31.5001 293.529 30.5087C293.529 29.458 293.703 28.4676 294.053 27.417C294.403 26.4837 294.87 25.6666 295.57 24.9669C296.269 24.2672 297.028 23.6837 297.902 23.3339C298.836 22.9259 299.827 22.6923 300.877 22.6923C302.16 22.6342 303.443 22.984 304.552 23.6256C305.66 24.3253 306.593 25.2005 307.41 26.2501C307.76 26.6581 308.226 27.009 308.751 27.2415C309.335 27.4751 310.035 27.2997 310.734 26.7162L314.526 23.8581C314.992 23.5664 315.343 23.0992 315.517 22.575C315.751 21.9915 315.691 21.3499 315.343 20.8246C313.884 18.55 311.901 16.6823 309.509 15.341C307.001 13.9416 304.026 13.1826 300.701 13.1826C298.369 13.1826 296.035 13.6488 293.818 14.5239C291.718 15.3991 289.851 16.6242 288.277 18.198C286.702 19.7729 285.419 21.6395 284.543 23.7398C282.735 28.1146 282.735 33.0148 284.543 37.3896C285.419 39.4306 286.644 41.3564 288.277 42.8732C291.602 46.1393 296.035 47.8896 300.701 47.8896C304.027 47.8896 307.001 47.1307 309.509 45.7313C311.901 44.39 313.942 42.5233 315.401 40.1895C315.693 39.6642 315.751 39.0226 315.575 38.4973C315.343 38.0312 314.992 37.564 314.526 37.2141L314.527 37.2162ZM349.643 44.0412L339.201 28.7583L348.126 16.9751C348.534 16.4498 348.709 15.6919 348.476 15.0503C348.301 14.5842 347.892 14.117 346.785 14.117H339.726C339.317 14.117 338.909 14.2333 338.559 14.4087C338.093 14.6413 337.743 14.9922 337.51 15.4002L330.393 25.3749H328.702V1.80849C328.702 1.34131 328.526 0.875175 328.176 0.524258C327.827 0.174398 327.418 0 326.951 0H320.36C319.893 0 319.427 0.175456 319.076 0.525316C318.726 0.875176 318.552 1.28317 318.552 1.80849V45.2662C318.552 45.7905 318.726 46.1995 319.076 46.5494C319.426 46.8992 319.893 47.0736 320.36 47.0736H326.951C327.418 47.0736 327.885 46.8992 328.176 46.5494C328.526 46.1995 328.702 45.7323 328.702 45.2662V33.7747H330.568L338.327 45.6742C338.793 46.5494 339.668 47.0736 340.601 47.0736H348.01C349.117 47.0736 349.585 46.5494 349.818 46.0822C350.11 45.3243 350.051 44.5654 349.643 44.0412ZM185.262 14.0589H177.854C177.27 14.0589 176.745 14.2333 176.337 14.6423C175.987 14.9922 175.754 15.4012 175.637 15.8674L170.155 36.1677H168.813L162.979 15.8674C162.863 15.4594 162.687 15.0514 162.396 14.6423C162.046 14.2343 161.579 14.0007 161.054 14.0007H153.53C152.538 14.0007 151.955 14.2925 151.663 14.9922C151.489 15.5756 151.489 16.2172 151.663 16.8007L160.996 45.3835C161.171 45.7926 161.346 46.2587 161.696 46.5504C162.046 46.9003 162.571 47.0757 163.095 47.0757H167.062L166.712 48.0091L165.837 50.6336C165.545 51.4506 165.078 52.1503 164.379 52.6746C163.737 53.1407 162.979 53.4335 162.162 53.3743C161.462 53.3743 160.821 53.1999 160.179 52.9663C159.538 52.6746 158.954 52.3247 158.429 51.9167C157.963 51.5669 157.379 51.3914 156.738 51.3914H156.679C155.98 51.4495 155.338 51.7994 154.987 52.441L152.654 55.8825C151.721 57.3993 152.245 58.3326 152.829 58.8569C154.112 60.0238 155.571 60.8979 157.204 61.4232C159.012 62.0648 160.879 62.3565 162.745 62.3565C166.129 62.3565 168.929 61.4232 171.087 59.6147C173.304 57.6318 174.996 55.0644 175.812 52.1482L186.662 16.7986C186.895 16.157 186.953 15.5154 186.72 14.932C186.662 14.5229 186.254 13.9986 185.261 14.0568L185.262 14.0589Z" fill="#131E32"/>
</svg>
