<svg width="40" height="40" viewBox="0 0 40 40" fill="none" xmlns="http://www.w3.org/2000/svg">
<rect width="40" height="40" rx="20" fill="#FCD9C0"/>
<g clip-path="url(#clip0_454_17717)">
<path d="M25.9996 25V30H23.9996V25C23.9996 20.549 26.6436 16.715 30.4466 14.984L31.2746 16.804C29.7013 17.5196 28.3673 18.6729 27.4319 20.1263C26.4965 21.5797 25.9993 23.2716 25.9996 25ZM15.9996 25V30H13.9996V25C13.9998 23.2718 13.5024 21.5801 12.567 20.1269C11.6317 18.6737 10.2977 17.5205 8.72461 16.805L9.55261 14.984C11.4753 15.8585 13.1056 17.268 14.2488 19.0441C15.3921 20.8201 15.9998 22.8878 15.9996 25ZM19.9996 20C18.6735 20 17.4018 19.4732 16.4641 18.5355C15.5264 17.5979 14.9996 16.3261 14.9996 15C14.9996 13.6739 15.5264 12.4021 16.4641 11.4645C17.4018 10.5268 18.6735 10 19.9996 10C21.3257 10 22.5975 10.5268 23.5351 11.4645C24.4728 12.4021 24.9996 13.6739 24.9996 15C24.9996 16.3261 24.4728 17.5979 23.5351 18.5355C22.5975 19.4732 21.3257 20 19.9996 20ZM19.9996 18C20.3936 18 20.7837 17.9224 21.1477 17.7716C21.5116 17.6209 21.8424 17.3999 22.1209 17.1213C22.3995 16.8427 22.6205 16.512 22.7712 16.1481C22.922 15.7841 22.9996 15.394 22.9996 15C22.9996 14.606 22.922 14.2159 22.7712 13.8519C22.6205 13.488 22.3995 13.1573 22.1209 12.8787C21.8424 12.6001 21.5116 12.3791 21.1477 12.2284C20.7837 12.0776 20.3936 12 19.9996 12C19.204 12 18.4409 12.3161 17.8783 12.8787C17.3157 13.4413 16.9996 14.2044 16.9996 15C16.9996 15.7956 17.3157 16.5587 17.8783 17.1213C18.4409 17.6839 19.204 18 19.9996 18Z" fill="#F58634"/>
<path d="M25.9996 25V30H23.9996V25C23.9996 20.549 26.6436 16.715 30.4466 14.984L31.2746 16.804C29.7013 17.5196 28.3673 18.6729 27.4319 20.1263C26.4965 21.5797 25.9993 23.2716 25.9996 25ZM15.9996 25V30H13.9996V25C13.9998 23.2718 13.5024 21.5801 12.567 20.1269C11.6317 18.6737 10.2977 17.5205 8.72461 16.805L9.55261 14.984C11.4753 15.8585 13.1056 17.268 14.2488 19.0441C15.3921 20.8201 15.9998 22.8878 15.9996 25ZM19.9996 20C18.6735 20 17.4018 19.4732 16.4641 18.5355C15.5264 17.5979 14.9996 16.3261 14.9996 15C14.9996 13.6739 15.5264 12.4021 16.4641 11.4645C17.4018 10.5268 18.6735 10 19.9996 10C21.3257 10 22.5975 10.5268 23.5351 11.4645C24.4728 12.4021 24.9996 13.6739 24.9996 15C24.9996 16.3261 24.4728 17.5979 23.5351 18.5355C22.5975 19.4732 21.3257 20 19.9996 20ZM19.9996 18C20.3936 18 20.7837 17.9224 21.1477 17.7716C21.5116 17.6209 21.8424 17.3999 22.1209 17.1213C22.3995 16.8427 22.6205 16.512 22.7712 16.1481C22.922 15.7841 22.9996 15.394 22.9996 15C22.9996 14.606 22.922 14.2159 22.7712 13.8519C22.6205 13.488 22.3995 13.1573 22.1209 12.8787C21.8424 12.6001 21.5116 12.3791 21.1477 12.2284C20.7837 12.0776 20.3936 12 19.9996 12C19.204 12 18.4409 12.3161 17.8783 12.8787C17.3157 13.4413 16.9996 14.2044 16.9996 15C16.9996 15.7956 17.3157 16.5587 17.8783 17.1213C18.4409 17.6839 19.204 18 19.9996 18Z" fill="black" fill-opacity="0.2"/>
</g>
<defs>
<clipPath id="clip0_454_17717">
<rect width="24" height="24" fill="white" transform="translate(8 8)"/>
</clipPath>
</defs>
</svg>
