<svg width="60" height="60" viewBox="0 0 60 60" fill="none" xmlns="http://www.w3.org/2000/svg">
<rect width="60" height="60" rx="30" fill="#F58634" fill-opacity="0.15"/>
<g clip-path="url(#clip0_3_28763)">
<path d="M30.5003 20.2891C31.2739 20.2891 32.0157 20.5964 32.5627 21.1433C33.1097 21.6903 33.417 22.4322 33.417 23.2057C33.417 23.5557 33.3587 23.8911 33.242 24.212C39.1774 25.3932 43.6253 30.3661 43.6253 36.3307H17.3753C17.3753 30.3661 21.8232 25.3932 27.7587 24.212C27.642 23.8911 27.5837 23.5557 27.5837 23.2057C27.5837 22.4322 27.8909 21.6903 28.4379 21.1433C28.9849 20.5964 29.7268 20.2891 30.5003 20.2891ZM45.0837 40.7057H15.917V37.7891H45.0837V40.7057Z" fill="#F58634"/>
</g>
<defs>
<clipPath id="clip0_3_28763">
<rect width="35" height="35" fill="white" transform="translate(13 12)"/>
</clipPath>
</defs>
</svg>
