<svg width="350" height="73" viewBox="0 0 350 73" fill="none" xmlns="http://www.w3.org/2000/svg">
<path fill-rule="evenodd" clip-rule="evenodd" d="M350 37.6183C350 25.174 337.947 15.3518 314.898 15.3518C291.765 15.3518 277.758 25.1719 277.758 37.5189C277.758 52.1517 294.285 59.5401 318.007 59.5401C329.577 59.5401 338.328 58.229 344.938 56.3809V46.6581C338.328 48.3117 330.745 49.3309 321.119 49.3309C311.688 49.3309 303.327 47.6773 302.257 41.9426H349.793C349.793 41.3082 349.987 38.7834 349.987 37.6162L350 37.6183ZM302.012 33.0022C302.012 27.5085 308.719 25.2248 314.847 25.2248C320.777 25.2248 327.099 27.5085 327.099 33.0022H302.012ZM240.279 15.356C230.751 15.356 224.631 17.5911 221.222 19.1475L219.954 16.1342H198.525V72.8153L222.83 70.2398L222.927 56.4824C226.429 57.7469 231.58 59.5443 240.139 59.5443C257.542 59.5443 273.389 52.5662 273.389 37.134C273.292 23.0362 257.251 15.3539 240.232 15.3539L240.279 15.356ZM234.443 48.8509C228.708 48.8509 225.308 47.8296 222.969 46.5672L222.872 28.5298C225.401 27.1194 228.898 26.1488 234.443 26.1488C243.29 26.1488 249.414 31.1075 249.414 37.4745C249.414 43.9874 243.387 48.8509 234.443 48.8509ZM165.085 12.4887L189.487 9.8666V0L165.085 2.57555V12.4887ZM165.085 16.1828H189.487V58.7175H165.085V16.1828ZM138.927 19.7776L137.371 16.1828H116.369V58.7217H140.674V29.8916C146.409 26.1488 156.132 26.8297 159.147 27.3647V16.185C156.034 15.6013 144.662 14.5314 138.923 19.7797L138.927 19.7776ZM90.3177 5.60997L66.5964 8.14111L66.4991 47.0789C66.4991 54.2727 77.2919 59.5718 91.6795 59.5718C99.6514 59.5718 105.483 58.8423 108.693 57.9647V48.096C105.581 48.7304 90.2204 50.9633 90.2204 43.7696V26.5379H108.693V16.1828H90.2119L90.3177 5.60997ZM24.5967 28.5066C24.5967 26.6098 27.7094 25.8845 32.8605 25.8845C41.2687 25.974 49.5205 27.0381 56.9666 28.9929V17.5933C48.8974 15.9862 40.9255 15.3582 32.8605 15.3582C13.123 15.3582 0 20.5114 0 29.1156C0 42.5325 36.9458 40.3926 36.9458 46.1802C36.9458 48.4153 33.055 49.1448 27.6121 49.1448C19.5429 49.1448 9.23646 47.4912 1.06998 45.254V56.8207C10.1119 58.7661 19.2553 59.5697 27.6121 59.5697C47.8359 59.5697 61.7413 54.5624 61.7413 45.8609C61.6441 31.3761 24.5967 33.9516 24.5967 28.5066Z" fill="#6772E5"/>
</svg>
