<svg width="26" height="25" viewBox="0 0 26 25" fill="none" xmlns="http://www.w3.org/2000/svg">
<path d="M22.6979 12.3562C22.6979 17.5236 18.509 21.7125 13.3417 21.7125M22.6979 12.3562C22.6979 7.18894 18.509 3 13.3417 3M22.6979 12.3562H3.98541M13.3417 21.7125C8.17435 21.7125 3.98541 17.5236 3.98541 12.3562M13.3417 21.7125C15.0641 21.7125 16.4604 17.5236 16.4604 12.3562C16.4604 7.18894 15.0641 3 13.3417 3M13.3417 21.7125C11.6192 21.7125 10.2229 17.5236 10.2229 12.3562C10.2229 7.18894 11.6192 3 13.3417 3M3.98541 12.3562C3.98541 7.18894 8.17435 3 13.3417 3" stroke="#10375C" stroke-width="2.07917" stroke-linecap="round" stroke-linejoin="round"/>
</svg>
