<svg width="25" height="24" viewBox="0 0 25 24" fill="none" xmlns="http://www.w3.org/2000/svg">
<g clip-path="url(#clip0_729_20028)">
<path d="M24.0312 17.9096C24.0312 18.0411 24.0271 18.3247 24.0189 18.5466C23.9984 19.0849 23.9573 19.7795 23.8915 20.0959C23.7929 20.5726 23.6491 21.0205 23.4559 21.3945C23.2299 21.8384 22.9422 22.2329 22.597 22.574C22.2559 22.9151 21.8614 23.2027 21.4176 23.4288C21.0436 23.6219 20.5915 23.7658 20.1107 23.8644C19.7984 23.926 19.108 23.9712 18.5737 23.9877C18.3518 23.9959 18.0682 24 17.9367 24H6.11755C5.98604 24 5.70248 23.9959 5.48057 23.9877C4.94221 23.9671 4.24769 23.926 3.93125 23.8603C3.45454 23.7616 3.00659 23.6178 2.63262 23.4247C2.18878 23.1986 1.79426 22.911 1.45317 22.5658C1.11207 22.2247 0.824401 21.8301 0.598373 21.3863C0.405223 21.0123 0.261387 20.5603 0.162757 20.0795C0.101113 19.7671 0.0559075 19.0767 0.0394692 18.5425C0.0353596 18.3247 0.03125 18.0411 0.03125 17.9096V6.09041C0.03125 5.9589 0.0353596 5.67534 0.0435788 5.45342C0.0641267 4.91507 0.105223 4.22055 0.170976 3.90411C0.269606 3.4274 0.413442 2.97945 0.606592 2.60548C0.83262 2.16164 1.12029 1.76712 1.46139 1.42603C1.80248 1.08493 2.197 0.79726 2.64084 0.571233C3.01481 0.378082 3.46687 0.234247 3.94769 0.135616C4.26002 0.0739726 4.95043 0.0287671 5.48467 0.0123288C5.70659 0.00410959 5.99015 0 6.12166 0H17.9408C18.0723 0 18.3559 0.00410959 18.5778 0.0123288C19.1162 0.0328767 19.8107 0.0739726 20.1271 0.139726C20.6039 0.238356 21.0518 0.382192 21.4258 0.575342C21.8696 0.80137 22.2641 1.08904 22.6052 1.43425C22.9463 1.77534 23.234 2.16986 23.46 2.6137C23.6532 2.98767 23.797 3.43973 23.8956 3.92055C23.9573 4.23288 24.0025 4.92329 24.0189 5.45753C24.0271 5.67945 24.0312 5.96301 24.0312 6.09452V17.9096Z" fill="url(#paint0_linear_729_20028)"/>
<path fill-rule="evenodd" clip-rule="evenodd" d="M18.3435 5.74513C16.7284 4.13006 14.5791 3.23828 12.2901 3.23828C7.57228 3.23828 3.73803 7.07664 3.73393 11.7903C3.73393 13.2986 4.12845 14.7698 4.87639 16.0643L3.66406 20.4986L8.20105 19.3109C9.45036 19.9931 10.8558 20.3506 12.2901 20.3506H12.2942C17.0079 20.3506 20.8463 16.5123 20.8504 11.7986C20.8504 9.50951 19.9586 7.3602 18.3435 5.74513ZM12.2942 18.904C11.0161 18.904 9.76269 18.5588 8.67365 17.9136L8.41475 17.7616L5.72297 18.4684L6.44214 15.8465L6.27365 15.5794C5.56269 14.4492 5.18461 13.1383 5.18461 11.7944C5.18461 7.8739 8.37776 4.68486 12.2983 4.68486C14.1969 4.68486 15.9846 5.42458 17.3243 6.76842C18.6682 8.11225 19.4079 9.89993 19.4038 11.7986C19.3997 15.715 16.2106 18.904 12.2942 18.904ZM16.1942 13.5821C15.9805 13.4753 14.9284 12.9575 14.7353 12.8876C14.538 12.8177 14.3983 12.7807 14.2545 12.9944C14.1106 13.2081 13.7038 13.689 13.5764 13.8328C13.4531 13.9766 13.3257 13.9931 13.112 13.8862C12.8983 13.7794 12.2079 13.5534 11.3942 12.826C10.7572 12.2588 10.3298 11.5602 10.2065 11.3465C10.0832 11.1328 10.1942 11.0177 10.301 10.9109C10.3956 10.8164 10.5147 10.6602 10.6216 10.5369C10.7284 10.4136 10.7654 10.3232 10.8353 10.1794C10.9052 10.0355 10.8723 9.91225 10.8189 9.80541C10.7654 9.69856 10.338 8.6465 10.1613 8.2191C9.98872 7.80403 9.81201 7.85746 9.6805 7.85335C9.55721 7.84513 9.41338 7.84513 9.26954 7.84513C9.12571 7.84513 8.89557 7.89856 8.69831 8.11225C8.50105 8.32595 7.95036 8.84376 7.95036 9.89582C7.95036 10.9479 8.71475 11.9629 8.8216 12.1068C8.92845 12.2506 10.3298 14.4081 12.475 15.3328C12.9846 15.5547 13.3832 15.6862 13.6956 15.7849C14.2093 15.9492 14.6737 15.9246 15.0435 15.8712C15.4545 15.8095 16.3093 15.3534 16.486 14.8561C16.6627 14.3588 16.6627 13.9273 16.6093 13.841C16.5476 13.7424 16.4079 13.689 16.1942 13.5821Z" fill="white"/>
</g>
<defs>
<linearGradient id="paint0_linear_729_20028" x1="12.0322" y1="24.0018" x2="12.0322" y2="0" gradientUnits="userSpaceOnUse">
<stop stop-color="#25CF43"/>
<stop offset="1" stop-color="#61FD7D"/>
</linearGradient>
<clipPath id="clip0_729_20028">
<rect width="24" height="24" fill="white" transform="translate(0.03125)"/>
</clipPath>
</defs>
</svg>
