<svg width="233" height="74" viewBox="0 0 233 74" fill="none" xmlns="http://www.w3.org/2000/svg">
<path d="M74.2119 22.4567H82.4555C84.1611 22.4567 85.5824 22.4567 86.4351 22.7409C87.0037 22.7409 87.8565 23.0252 88.425 23.5937C89.2778 23.878 89.562 24.4465 90.1305 25.2993C90.6991 25.8678 90.6991 26.7206 90.6991 27.5734C90.6991 28.7104 90.4148 29.5632 89.8463 30.416C89.562 31.2688 88.7092 31.8373 87.8565 32.4058C88.9935 32.6901 90.1305 33.2586 90.6991 34.1114C91.5518 35.2484 91.8361 36.1012 91.8361 37.5225C91.8361 38.3753 91.5518 39.2281 91.2676 40.0809C90.6991 41.2179 90.1305 41.7864 89.2778 42.3549C88.425 42.9235 87.5722 43.2077 86.4351 43.492C85.8666 43.492 83.8768 43.492 81.3184 43.492H74.2119V22.4567ZM78.4758 25.8678V30.7002H81.0342C82.7397 30.7002 83.8768 30.7002 84.1611 30.7002C85.0138 30.7002 85.5824 30.416 85.8666 29.8475C86.4351 29.5632 86.7194 28.9947 86.7194 28.4261C86.7194 27.5734 86.4351 27.0048 86.1509 26.7206C85.5824 26.4363 85.2981 26.1521 84.4453 25.8678C84.1611 25.8678 82.7397 25.8678 80.7499 25.8678H78.4758ZM78.4758 34.3956V40.0809H82.4555C83.8768 40.0809 84.7296 39.7966 85.2981 39.7966C85.8666 39.7966 86.4351 39.5123 86.7194 38.9438C87.2879 38.6596 87.2879 38.091 87.2879 37.2382C87.2879 36.6697 87.2879 36.1012 87.0037 35.5327C86.7194 35.2484 86.1509 34.6799 85.5824 34.6799C85.0138 34.3956 83.8768 34.3956 81.887 34.3956H78.4758Z" fill="white"/>
<path d="M94.394 35.8169C94.394 34.3956 94.6783 32.9742 95.5311 31.8372C96.0996 30.4159 96.9524 29.5631 98.3737 28.9946C99.5107 28.1418 100.932 27.8575 102.353 27.8575C104.627 27.8575 106.617 28.7103 108.039 30.1316C109.46 31.5529 110.313 33.5428 110.313 35.8169C110.313 38.0909 109.46 40.0808 108.039 41.7863C106.617 43.2076 104.627 44.0604 102.353 44.0604C100.932 44.0604 99.5107 43.4919 98.3737 42.9234C96.9524 42.3549 96.0996 41.5021 95.5311 40.0808C94.6783 38.9437 94.394 37.5224 94.394 35.8169ZM98.658 35.8169C98.658 37.5224 98.9422 38.6595 99.795 39.5123C100.364 40.0808 101.216 40.6493 102.353 40.6493C103.49 40.6493 104.343 40.0808 104.912 39.5123C105.764 38.6595 106.049 37.5224 106.049 35.8169C106.049 34.3956 105.764 33.2585 104.912 32.4057C104.343 31.5529 103.49 31.2687 102.353 31.2687C101.216 31.2687 100.364 31.5529 99.795 32.4057C98.9422 33.2585 98.658 34.3956 98.658 35.8169Z" fill="white"/>
<path d="M112.587 35.8169C112.587 34.3956 112.871 32.9742 113.44 31.8372C114.292 30.4159 115.145 29.5631 116.282 28.9946C117.419 28.1418 118.841 27.8575 120.262 27.8575C122.82 27.8575 124.526 28.7103 125.947 30.1316C127.653 31.5529 128.221 33.5428 128.221 35.8169C128.221 38.0909 127.653 40.0808 125.947 41.7863C124.526 43.2076 122.82 44.0604 120.546 44.0604C119.125 44.0604 117.704 43.4919 116.282 42.9234C115.145 42.3549 114.292 41.5021 113.44 40.0808C112.871 38.9437 112.587 37.5224 112.587 35.8169ZM116.567 35.8169C116.567 37.5224 117.135 38.6595 117.704 39.5123C118.556 40.0808 119.409 40.6493 120.546 40.6493C121.399 40.6493 122.252 40.0808 123.105 39.5123C123.673 38.6595 124.242 37.5224 124.242 35.8169C124.242 34.3956 123.673 33.2585 123.105 32.4057C122.252 31.5529 121.399 31.2687 120.546 31.2687C119.409 31.2687 118.556 31.5529 117.704 32.4057C117.135 33.2585 116.567 34.3956 116.567 35.8169Z" fill="white"/>
<path d="M131.348 43.492V22.4567H135.328V33.5429L140.16 28.1419H144.993L139.876 33.8271L145.561 43.492H141.013L137.318 36.6697L135.328 38.6596V43.492H131.348Z" fill="white"/>
<path d="M154.942 28.1418V31.5529H152.099V37.5224C152.099 38.9437 152.099 39.5123 152.099 39.7965C152.384 40.0808 152.384 40.365 152.668 40.365C152.668 40.365 152.952 40.6493 153.236 40.6493C153.521 40.6493 154.089 40.365 154.942 40.0808L155.226 43.2076C154.373 43.7762 153.236 44.0604 152.099 44.0604C151.247 44.0604 150.678 43.7762 150.11 43.4919C149.541 43.2076 148.972 42.9234 148.688 42.6391C148.404 42.3549 148.404 41.7863 148.12 40.9336C148.12 40.6493 148.12 39.5123 148.12 38.0909V31.5529H146.13V28.1418H148.12V25.2992L152.099 22.7408V28.1418H154.942Z" fill="white"/>
<path d="M166.597 38.6595L170.576 39.5123C170.292 40.9336 169.439 42.0706 168.302 42.6391C167.165 43.4919 165.744 44.0604 164.038 44.0604C161.48 44.0604 159.49 42.9234 158.069 41.2178C157.216 39.7965 156.647 38.0909 156.647 36.1011C156.647 33.5428 157.216 31.5529 158.637 30.1316C159.774 28.7103 161.48 27.8575 163.47 27.8575C165.744 27.8575 167.734 28.7103 168.871 30.1316C170.292 31.5529 170.861 33.827 170.861 36.9539H160.627C160.911 38.3752 161.196 39.228 161.764 39.7965C162.333 40.6493 163.185 40.9336 164.038 40.9336C164.607 40.9336 165.175 40.6493 165.744 40.365C166.028 40.0808 166.312 39.5123 166.597 38.6595ZM166.881 34.6798C166.881 33.5428 166.597 32.4057 166.028 31.8372C165.46 31.2687 164.607 30.9844 163.754 30.9844C162.901 30.9844 162.333 31.2687 161.764 31.8372C161.196 32.69 160.911 33.5428 160.911 34.6798H166.881Z" fill="white"/>
<path d="M174.271 43.492V22.4567H178.251V43.492H174.271Z" fill="white"/>
<path d="M182.515 43.492V22.4567H186.495V43.492H182.515Z" fill="white"/>
<path d="M199.571 38.6595L203.55 39.5123C202.982 40.9336 202.129 42.0706 200.992 42.6391C199.855 43.4919 198.434 44.0604 196.728 44.0604C194.17 44.0604 192.18 42.9234 191.043 41.2178C189.906 39.7965 189.337 38.0909 189.337 36.1011C189.337 33.5428 190.19 31.5529 191.327 30.1316C192.749 28.7103 194.454 27.8575 196.444 27.8575C198.718 27.8575 200.424 28.7103 201.845 30.1316C203.266 31.5529 203.835 33.827 203.835 36.9539H193.601C193.601 38.3752 193.886 39.228 194.454 39.7965C195.307 40.6493 195.875 40.9336 197.012 40.9336C197.581 40.9336 198.149 40.6493 198.434 40.365C199.002 40.0808 199.287 39.5123 199.571 38.6595ZM199.855 34.6798C199.571 33.5428 199.287 32.4057 198.718 31.8372C198.149 31.2687 197.581 30.9844 196.728 30.9844C195.875 30.9844 195.023 31.2687 194.454 31.8372C193.886 32.69 193.601 33.5428 193.601 34.6798H199.855Z" fill="white"/>
<path d="M210.941 43.4919H206.961V28.1418H210.657V30.4159C211.225 29.2788 211.794 28.7103 212.362 28.4261C212.931 28.1418 213.499 27.8575 214.068 27.8575C214.921 27.8575 216.058 28.1418 216.911 28.7103L215.489 32.1215C214.921 31.8372 214.352 31.5529 213.784 31.5529C212.931 31.5529 212.647 31.5529 212.078 32.1215C211.794 32.4057 211.51 32.9742 211.225 33.827C210.941 34.3956 210.941 36.1011 210.941 38.9437V43.4919Z" fill="white"/>
<path fill-rule="evenodd" clip-rule="evenodd" d="M5.42026 51.167C3.99896 50.8828 3.7147 50.03 3.99896 48.6087C14.8009 40.9336 25.6028 33.8271 36.9733 27.2891V27.0048C36.689 21.0354 41.5214 15.9187 47.7752 15.9187C53.7447 15.6344 58.8614 20.4668 58.8614 26.7206C59.1456 32.6901 54.3132 37.8068 48.0594 37.8068C45.5011 38.091 42.9427 36.954 40.9529 35.2484C29.2982 40.9336 17.6435 46.0503 5.42026 51.167ZM40.6686 25.015C42.3742 23.878 44.0798 23.0252 45.7854 21.8881C50.9021 19.3298 54.8817 28.4262 51.4706 30.1317C48.9122 31.2688 46.6381 32.4058 44.364 33.5429C45.5011 34.1114 46.6381 34.3956 48.0594 34.3956C52.3234 34.3956 55.7345 30.9845 55.4502 26.7206C55.4502 22.4567 52.0391 19.3298 47.7752 19.3298C44.364 19.3298 41.5214 21.8881 40.6686 25.015Z" fill="#F58634"/>
<path fill-rule="evenodd" clip-rule="evenodd" d="M64.831 44.629V44.9133V65.3801H31.0039V44.9133V44.629V40.9336C33.278 39.7966 35.8363 38.6595 38.3947 37.5225C40.953 39.7966 44.3642 41.2179 48.0596 41.2179C56.0189 41.2179 62.5569 34.6799 62.5569 26.7206C62.5569 18.7612 56.0189 12.2232 48.0596 12.2232C40.1003 12.2232 33.5623 18.7612 33.5623 26.7206C33.5623 27.0048 33.5623 27.2891 33.5623 27.8576C32.7095 28.1419 31.8567 28.7104 31.0039 29.2789V25.5835C31.0039 4.26392 65.1152 3.41114 64.831 25.5835V44.629ZM48.0596 47.4716C51.4707 47.4716 54.0291 50.3142 54.0291 53.7254V54.0096C54.0291 57.4208 51.4707 59.9791 48.0596 59.9791C44.6484 59.9791 41.8058 57.4208 41.8058 54.0096V53.7254C41.8058 50.3142 44.6484 47.4716 48.0596 47.4716Z" fill="white"/>
<path d="M48.0596 57.1365C49.9435 57.1365 51.4707 55.6093 51.4707 53.7253C51.4707 51.8414 49.9435 50.3142 48.0596 50.3142C46.1757 50.3142 44.6484 51.8414 44.6484 53.7253C44.6484 55.6093 46.1757 57.1365 48.0596 57.1365Z" fill="#F58634"/>
<path d="M74.2119 59.6948L75.9175 59.4106C75.9175 59.9791 76.2017 60.5476 76.486 61.1161C76.7703 61.4004 77.0545 61.6847 77.623 61.9689C78.1916 62.2532 78.7601 62.2532 79.6129 62.2532C80.1814 62.2532 80.7499 62.2532 81.0342 61.9689C81.6027 61.9689 81.887 61.6847 82.1712 61.4004C82.4555 61.1161 82.4555 60.5476 82.4555 60.2633C82.4555 59.9791 82.4555 59.4106 82.1712 59.1263C81.887 58.842 81.6027 58.842 81.0342 58.5578C80.7499 58.2735 80.1814 58.2735 79.0444 57.9893C77.9073 57.705 77.0545 57.4207 76.486 57.1365C75.9175 56.8522 75.6332 56.568 75.349 55.9994C75.0647 55.4309 74.7804 55.1466 74.7804 54.5781C74.7804 53.7253 75.0647 53.1568 75.349 52.5883C75.6332 52.0198 76.2017 51.7355 76.7703 51.4513C77.623 51.167 78.1916 51.167 79.0444 51.167C80.1814 51.167 80.7499 51.167 81.6027 51.4513C82.1712 51.7355 82.7397 52.304 83.3083 52.8726C83.5925 53.4411 83.8768 54.0096 83.8768 54.8624H82.1712C82.1712 54.0096 81.887 53.4411 81.3184 53.1568C80.7499 52.5883 80.1814 52.5883 79.3286 52.5883C78.1916 52.5883 77.623 52.5883 77.0545 53.1568C76.486 53.4411 76.486 53.7253 76.486 54.2939C76.486 54.8624 76.486 55.1466 76.7703 55.4309C77.0545 55.7152 77.9073 55.9994 79.3286 56.2837C80.7499 56.568 81.6027 56.8522 82.1712 57.1365C82.7397 57.4207 83.3083 57.705 83.5925 58.2735C83.8768 58.842 84.1611 59.4106 84.1611 59.9791C84.1611 60.8319 83.8768 61.4004 83.5925 61.9689C83.3083 62.5374 82.7397 63.106 81.887 63.3902C81.3184 63.6745 80.4657 63.6745 79.6129 63.6745C78.4758 63.6745 77.623 63.6745 76.7703 63.3902C75.9175 63.106 75.349 62.5374 75.0647 61.9689C74.4962 61.1161 74.4962 60.5476 74.2119 59.6948Z" fill="white"/>
<path d="M92.4043 60.8319H93.8256C93.5413 61.6847 93.2571 62.5374 92.4043 63.106C91.8358 63.3902 90.983 63.6745 89.8459 63.6745C88.7089 63.6745 87.5719 63.3902 86.7191 62.5374C86.1506 61.6847 85.582 60.5476 85.582 59.1263C85.582 57.705 86.1506 56.568 86.7191 55.7152C87.5719 54.8624 88.7089 54.5781 89.8459 54.5781C90.983 54.5781 92.12 54.8624 92.6886 55.7152C93.5413 56.568 93.8256 57.705 93.8256 59.1263V59.4106H87.2876C87.2876 60.5476 87.5719 61.1161 88.1404 61.6847C88.4246 62.2532 89.2774 62.5374 89.8459 62.5374C90.4145 62.5374 90.983 62.2532 91.2673 61.9689C91.8358 61.6847 92.12 61.4004 92.4043 60.8319ZM87.2876 58.2735H92.4043C92.12 57.4207 92.12 56.8522 91.8358 56.568C91.2673 55.9994 90.6987 55.7152 89.8459 55.7152C89.2774 55.7152 88.7089 55.9994 88.1404 56.2837C87.5719 56.8522 87.2876 57.4207 87.2876 58.2735Z" fill="white"/>
<path d="M95.8154 63.6745V54.5781H97.2367V55.9994C97.521 55.4309 97.8053 54.8624 98.0895 54.8624C98.3738 54.5781 98.658 54.5781 98.9423 54.5781C99.5108 54.5781 100.079 54.5781 100.648 54.8624L100.079 56.2837C99.7951 55.9994 99.2266 55.9994 98.9423 55.9994C98.658 55.9994 98.3738 55.9994 98.0895 56.2837C97.8053 56.568 97.521 56.8522 97.521 57.1365C97.2367 57.705 97.2367 58.2735 97.2367 58.842V63.6745H95.8154Z" fill="white"/>
<path d="M104.059 63.6745L100.648 54.5781H102.069L104.059 59.9791C104.343 60.5476 104.628 61.1161 104.628 61.6847C104.912 61.4004 104.912 60.8319 105.196 59.9791L107.186 54.5781H108.892L105.48 63.6745H104.059Z" fill="white"/>
<path d="M110.029 52.8726V51.167H111.734V52.8726H110.029ZM110.029 63.6745V54.5781H111.734V63.6745H110.029Z" fill="white"/>
<path d="M119.694 60.2633L121.399 60.5476C121.115 61.4004 120.831 62.2532 119.978 62.8217C119.409 63.3902 118.557 63.6745 117.704 63.6745C116.283 63.6745 115.43 63.3902 114.577 62.5374C114.008 61.6847 113.44 60.5476 113.44 59.1263C113.44 58.2735 113.724 57.4207 114.008 56.568C114.293 55.9994 114.861 55.4309 115.43 54.8624C115.998 54.5781 116.851 54.5781 117.704 54.5781C118.557 54.5781 119.409 54.5781 119.978 55.1466C120.546 55.7152 120.831 56.2837 121.115 57.1365L119.694 57.4207C119.409 56.8522 119.409 56.568 118.841 56.2837C118.557 55.7152 118.272 55.7152 117.704 55.7152C116.851 55.7152 116.283 55.9994 115.714 56.568C115.43 57.1365 115.146 57.9893 115.146 59.1263C115.146 60.2633 115.43 61.1161 115.714 61.6847C116.283 62.2532 116.851 62.5374 117.42 62.5374C118.272 62.5374 118.557 62.2532 119.125 61.9689C119.409 61.6847 119.694 61.1161 119.694 60.2633Z" fill="white"/>
<path d="M128.79 60.8319H130.211C129.927 61.6847 129.643 62.5374 128.79 63.106C128.222 63.3902 127.369 63.6745 126.232 63.6745C125.095 63.6745 123.958 63.3902 123.105 62.5374C122.536 61.6847 121.968 60.5476 121.968 59.1263C121.968 57.705 122.536 56.568 123.105 55.7152C123.958 54.8624 125.095 54.5781 126.232 54.5781C127.369 54.5781 128.506 54.8624 129.074 55.7152C129.927 56.568 130.211 57.705 130.211 59.1263V59.4106H123.673C123.673 60.5476 123.958 61.1161 124.526 61.6847C125.095 62.2532 125.663 62.5374 126.232 62.5374C126.8 62.5374 127.369 62.2532 127.653 61.9689C128.222 61.6847 128.506 61.4004 128.79 60.8319ZM123.673 58.2735H128.79C128.506 57.4207 128.506 56.8522 128.222 56.568C127.653 55.9994 127.084 55.7152 126.232 55.7152C125.663 55.7152 125.095 55.9994 124.526 56.2837C123.958 56.8522 123.673 57.4207 123.673 58.2735Z" fill="white"/>
<path d="M137.033 63.6745V51.167H142.718C143.855 51.167 144.708 51.4513 145.277 51.4513C145.845 51.7355 146.13 52.304 146.414 52.8726C146.982 53.4411 146.982 54.0096 146.982 54.5781C146.982 55.4309 146.698 56.2837 146.13 56.8522C145.561 57.4207 144.708 57.705 143.571 57.9893C143.855 58.2735 144.424 58.2735 144.424 58.5578C144.993 59.1263 145.561 59.6948 145.845 60.2633L148.119 63.6745H146.13L144.424 61.1161C143.855 60.2633 143.571 59.6948 143.287 59.4106C143.003 58.842 142.718 58.5578 142.434 58.5578C142.15 58.2735 141.866 58.2735 141.581 58.2735C141.297 57.9893 141.013 57.9893 140.729 57.9893H138.739V63.6745H137.033ZM138.739 56.568H142.434C143.003 56.568 143.571 56.568 144.14 56.568C144.424 56.2837 144.708 55.9994 144.993 55.7152C145.277 55.4309 145.277 55.1466 145.277 54.5781C145.277 54.0096 144.993 53.4411 144.708 53.1568C144.424 52.8726 143.571 52.5883 142.718 52.5883H138.739V56.568Z" fill="white"/>
<path d="M155.51 60.8319H156.931C156.931 61.6847 156.363 62.5374 155.794 63.106C154.942 63.3902 154.089 63.6745 153.236 63.6745C151.815 63.6745 150.678 63.3902 150.109 62.5374C149.256 61.6847 148.972 60.5476 148.972 59.1263C148.972 57.705 149.256 56.568 150.109 55.7152C150.962 54.8624 151.815 54.5781 152.952 54.5781C154.373 54.5781 155.226 54.8624 156.079 55.7152C156.647 56.568 157.216 57.705 157.216 59.1263V59.4106H150.393C150.393 60.5476 150.678 61.1161 151.246 61.6847C151.815 62.2532 152.383 62.5374 153.236 62.5374C153.805 62.5374 154.089 62.2532 154.657 61.9689C154.942 61.6847 155.226 61.4004 155.51 60.8319ZM150.393 58.2735H155.51C155.51 57.4207 155.226 56.8522 154.942 56.568C154.373 55.9994 153.805 55.7152 152.952 55.7152C152.383 55.7152 151.815 55.9994 151.246 56.2837C150.962 56.8522 150.678 57.4207 150.393 58.2735Z" fill="white"/>
<path d="M164.891 63.6745V62.5374C164.323 63.3902 163.47 63.6745 162.333 63.6745C161.48 63.6745 160.911 63.6745 160.343 63.106C159.774 62.8217 159.206 62.2532 158.922 61.6847C158.637 60.8319 158.353 59.9791 158.353 59.1263C158.353 58.2735 158.637 57.4207 158.922 56.568C159.206 55.9994 159.49 55.4309 160.059 55.1466C160.911 54.5781 161.48 54.5781 162.048 54.5781C162.617 54.5781 163.185 54.5781 163.754 54.8624C164.038 55.1466 164.323 55.4309 164.607 55.7152V51.167H166.312V63.6745H164.891ZM160.059 59.1263C160.059 60.2633 160.343 61.1161 160.627 61.6847C161.196 62.2532 161.764 62.5374 162.333 62.5374C163.185 62.5374 163.754 62.2532 164.038 61.6847C164.607 61.1161 164.891 60.2633 164.891 59.1263C164.891 57.9893 164.607 57.1365 164.038 56.568C163.47 55.9994 162.901 55.7152 162.333 55.7152C161.764 55.7152 161.196 55.9994 160.627 56.568C160.059 57.1365 160.059 57.9893 160.059 59.1263Z" fill="white"/>
<path d="M174.556 60.8319H176.262C175.977 61.6847 175.409 62.5374 174.84 63.106C174.272 63.3902 173.419 63.6745 172.282 63.6745C171.145 63.6745 170.008 63.3902 169.155 62.5374C168.587 61.6847 168.018 60.5476 168.018 59.1263C168.018 57.705 168.587 56.568 169.155 55.7152C170.008 54.8624 170.861 54.5781 172.282 54.5781C173.419 54.5781 174.272 54.8624 175.125 55.7152C175.977 56.568 176.262 57.705 176.262 59.1263V59.4106H169.724C169.724 60.5476 170.008 61.1161 170.576 61.6847C170.861 62.2532 171.713 62.5374 172.282 62.5374C172.851 62.5374 173.419 62.2532 173.703 61.9689C174.272 61.6847 174.556 61.4004 174.556 60.8319ZM169.724 58.2735H174.556C174.556 57.4207 174.556 56.8522 173.988 56.568C173.703 55.9994 173.135 55.7152 172.282 55.7152C171.429 55.7152 170.861 55.9994 170.576 56.2837C170.008 56.8522 169.724 57.4207 169.724 58.2735Z" fill="white"/>
<path d="M178.536 63.6745V55.7152H177.114V54.5781H178.536V53.7253C178.536 52.8726 178.82 52.304 179.104 51.7355C179.388 51.167 180.241 51.167 180.81 51.167C181.378 51.167 181.947 51.167 182.515 51.167L182.231 52.5883C181.947 52.5883 181.662 52.304 181.378 52.304C180.81 52.304 180.525 52.5883 180.241 52.8726C180.241 52.8726 179.957 53.4411 179.957 54.0096V54.5781H181.947V55.7152H179.957V63.6745H178.536ZM182.799 52.8726V51.167H184.505V52.8726H182.799ZM182.799 63.6745V54.5781H184.505V63.6745H182.799Z" fill="white"/>
<path d="M186.779 63.6745V54.5781H188.201V55.9994C188.769 54.8624 189.622 54.5781 191.043 54.5781C191.612 54.5781 191.896 54.5781 192.465 54.8624C193.033 54.8624 193.317 55.1466 193.602 55.4309C193.602 55.7152 193.886 56.2837 193.886 56.568C193.886 56.8522 194.17 57.4207 194.17 57.9893V63.6745H192.465V58.2735C192.465 57.4207 192.465 57.1365 192.465 56.8522C192.18 56.568 191.896 56.2837 191.612 55.9994C191.327 55.7152 191.043 55.7152 190.759 55.7152C189.906 55.7152 189.338 55.9994 189.053 56.2837C188.485 56.8522 188.201 57.4207 188.201 58.842V63.6745H186.779Z" fill="white"/>
<path d="M202.413 60.8319H204.119C203.835 61.6847 203.266 62.5374 202.698 63.106C202.129 63.3902 201.276 63.6745 200.139 63.6745C198.718 63.6745 197.865 63.3902 197.013 62.5374C196.16 61.6847 195.875 60.5476 195.875 59.1263C195.875 57.705 196.16 56.568 197.013 55.7152C197.865 54.8624 198.718 54.5781 200.139 54.5781C201.276 54.5781 202.129 54.8624 202.982 55.7152C203.835 56.568 204.119 57.705 204.119 59.1263V59.4106H197.297C197.581 60.5476 197.865 61.1161 198.15 61.6847C198.718 62.2532 199.287 62.5374 200.139 62.5374C200.708 62.5374 201.276 62.2532 201.561 61.9689C201.845 61.6847 202.129 61.4004 202.413 60.8319ZM197.581 58.2735H202.413C202.413 57.4207 202.129 56.8522 201.845 56.568C201.561 55.9994 200.708 55.7152 200.139 55.7152C199.287 55.7152 198.718 55.9994 198.15 56.2837C197.865 56.8522 197.581 57.4207 197.581 58.2735Z" fill="white"/>
<path d="M211.794 63.6745V62.5374C211.225 63.3902 210.373 63.6745 209.236 63.6745C208.383 63.6745 207.814 63.6745 207.246 63.106C206.677 62.8217 206.109 62.2532 205.824 61.6847C205.54 60.8319 205.256 59.9791 205.256 59.1263C205.256 58.2735 205.54 57.4207 205.824 56.568C206.109 55.9994 206.677 55.4309 207.246 55.1466C207.814 54.5781 208.383 54.5781 209.236 54.5781C209.804 54.5781 210.088 54.5781 210.657 54.8624C210.941 55.1466 211.225 55.4309 211.51 55.7152V51.167H213.215V63.6745H211.794ZM206.961 59.1263C206.961 60.2633 207.246 61.1161 207.53 61.6847C208.098 62.2532 208.667 62.5374 209.236 62.5374C210.088 62.5374 210.657 62.2532 210.941 61.6847C211.51 61.1161 211.794 60.2633 211.794 59.1263C211.794 57.9893 211.51 57.1365 210.941 56.568C210.657 55.9994 210.088 55.7152 209.236 55.7152C208.667 55.7152 208.098 55.9994 207.53 56.568C207.246 57.1365 206.961 57.9893 206.961 59.1263Z" fill="white"/>
</svg>
